<?xml version="1.0" standalone="no"?>
<!DOCTYPE svg PUBLIC "-//W3C//DTD SVG 1.1//EN" "http://www.w3.org/Graphics/SVG/1.1/DTD/svg11.dtd" >
<svg xmlns="http://www.w3.org/2000/svg">
<metadata></metadata>
<defs>
<font id="armystampmedium" horiz-adv-x="20" >
<font-face units-per-em="2048" ascent="1638" descent="-410" />
<missing-glyph horiz-adv-x="614" />
<glyph horiz-adv-x="0" />
<glyph unicode="&#xd;" horiz-adv-x="681" />
<glyph unicode=" "  horiz-adv-x="614" />
<glyph unicode="&#x09;" horiz-adv-x="614" />
<glyph unicode="&#xa0;" horiz-adv-x="614" />
<glyph unicode="!" horiz-adv-x="284" d="M22.5 834.5q3.5 19.5 30.5 46.5q37 37 60 37q29 0 61.5 -27t32.5 -49q0 -16 9 -19.5t20.5 1.5t19.5 1t8 -22q0 -20 -20.5 -49t-12.5 -45q4 -25 0 -33t-15 -46t-15 -81q-10 -111 -22.5 -149t-35.5 -38q-14 0 -21 8.5t-11.5 28t-7.5 43t-13 63.5t-24 81q-31 78 -41 168 q-6 61 -2.5 80.5zM39 223.5q4 16.5 27 34.5q33 27 92 16.5t75.5 -28t16.5 -72.5q0 -57 -21.5 -77.5t-78.5 -12.5q-55 8 -62 -8q-10 -33 -31 12q-10 27 -16 68q-6 51 -2 67.5z" />
<glyph unicode="#" horiz-adv-x="755" d="M25.5 293q-9.5 10 1.5 41q10 29 73 35q45 6 57.5 17t30.5 63q27 72 27 126q0 35 -7 45.5t-34 16.5t-40 10t-22.5 8t-8.5 7.5t3 9.5q8 14 78 14q55 0 82 17.5t15 48.5q-8 23 22.5 63.5t50.5 32.5q14 -4 14.5 -8t-16.5 -13q-37 -20 -18.5 -66t72.5 -65q31 -12 24.5 -32.5 t-43.5 -20.5q-41 0 -49 -12q-10 -18 -30.5 -130t-14.5 -126q8 -20 43 -13q31 8 42 -6t-5 -45q-14 -29 -56 -28q-74 0 -73 -76q0 -41 -21 -90q-14 -31 -26.5 -41t-36.5 -10q-41 0 -49.5 8t14.5 86q20 74 11 98.5t-56 24.5q-45 0 -54.5 10zM301 903q0 23 25 25q16 2 18 -10 q0 -4 -2 -9q-2 -6 -12.5 -11t-19.5 -4t-9 9zM385 137q4 39 19.5 82t26.5 71.5t5 41.5q-4 14 12.5 89t34.5 122q29 70 42.5 114.5t12.5 57t1 20.5t14 23q14 16 18 25.5t3 23.5t-1 22q4 35 23 -8q8 -20 16 -53q10 -41 20.5 -51t47.5 -12q55 -6 55 -33q-2 -31 -65 -43 q-8 -2 -15 -2h-4q-31 -4 -41 -24.5t-47 -139.5q-2 -12 -4 -17q-14 -47 -2 -62t61 -15q47 0 58.5 -10.5t-0.5 -43.5q-8 -20 -21.5 -26t-48.5 -6q-51 0 -70.5 -21.5t-33.5 -95.5q-12 -70 -25.5 -86.5t-54.5 -9.5q-29 2 -34 12t-3 55zM580 913q-6 18 14 19q20 0 37 -19 q16 -20 -8 -20q-35 2 -43 20z" />
<glyph unicode="$" horiz-adv-x="616" d="M20 258q6 59 43 89t79 15.5t55 -69.5q8 -35 2 -58.5t-17.5 -29.5t-15.5 -18.5t10 -26.5q20 -23 57 -19q25 2 32 15.5t9 60.5q6 90 25 90q8 0 8 -39q2 -88 26.5 -113.5t72.5 11.5q25 18 27.5 32.5t-5.5 57.5q-10 45 -25.5 62.5t-49.5 33t-58 37.5q-27 23 -41 23 q-10 0 -22.5 12t-37 32.5t-53.5 35.5q-31 14 -40 29.5t-15 60.5q-4 35 -14.5 57.5t-18.5 29.5t-13 13t0 12t26 25q20 20 42.5 50t38 46t32 16t22.5 -11t6 -46q0 -49 40 -85t97 -62.5t114.5 -58t97.5 -89t40 -139.5q0 -88 -54.5 -158.5t-144.5 -101.5q-68 -25 -75 -55.5 t-22 -30.5t-24 31q-6 25 -37.5 37t-83 31.5t-87.5 56.5q-33 33 -41.5 52t-6.5 56zM164 872q0 3 2 5q4 14 37 26t59.5 12t30.5 -10q0 -16 -14.5 -22t-63.5 -15q-51 -10 -51 4zM281 829q6 31 22 31q8 0 11 -34.5t-2 -70.5t-13 -40q-4 -2 -8 10q-20 47 -10 104zM293 983 q0 25 16 12q12 -8 13 -20q0 -14 -14.5 -14.5t-14.5 22.5zM379 860q4 4 29.5 5t55.5 -7t30 -22q0 -6 8 -12.5t20 -6.5q23 0 35 -20.5t-4 -30.5q-14 -8 -14 -37q0 -25 -45 -40t-74 -1q-25 12 -33 42t6 58q12 27 9 35t-13 18.5t-10 18.5z" />
<glyph unicode="%" horiz-adv-x="948" d="M20 739q0 57 21.5 94.5t56.5 43.5q18 0 26.5 3t14.5 -5.5t9.5 -15.5t6.5 -28.5t6 -41t10 -55.5t17 -72q20 -74 8 -91.5t-69 2.5q-106 39 -107 166zM207 901q0 16 14.5 16.5t14.5 -6.5q0 -10 -17 -16q-12 -4 -12 6zM250 76q-10 10 97.5 233.5t166.5 315.5q39 61 61 61 q10 0 0 -24q-4 -10 -12 -37t-20.5 -58.5t-30.5 -64.5q-31 -55 -67.5 -133t-62.5 -130.5t-51.5 -99.5t-46 -63.5t-34.5 0.5zM270 580q-8 23 13 47q16 16 29.5 82.5t11.5 119.5q0 18 2 31.5t8 19t11 7.5t16.5 -2t15.5 -6t15 -10.5t14 -8.5q37 -23 52 -69t3 -101 q-14 -66 -92 -110q-78 -41 -99 0zM481 233q0 43 7.5 66.5t27.5 46.5q37 37 66 37q23 0 29.5 -23.5t21.5 -140.5q6 -59 21.5 -84.5t15.5 -44t-10.5 -21.5t-43.5 3q-53 8 -94 47q-27 27 -34 46t-7 68zM745 96q49 209 41 258q-6 45 17 43q20 0 71 -43q37 -31 45.5 -49t8.5 -63 q0 -68 -37 -115t-98 -55q-39 -6 -46.5 -3t-1.5 27z" />
<glyph unicode="&#x26;" />
<glyph unicode="'" horiz-adv-x="659" d="M23 483q-6 48 2 66q12 35 383 -4q131 -14 167.5 -25.5t32.5 -34.5q-12 -61 -366 -55l-215 4zM219 255q-8 38 27 75q20 23 40.5 24.5t35 -8.5t33 -13t32.5 9q12 8 16.5 7t4.5 -15q0 -10 -4.5 -14.5t-10.5 -0.5q-14 8 -14 -3t29 -29q31 -18 29.5 -54t-31.5 -57 q-37 -27 -81 -20.5t-71 34t-35 65.5zM221 724q-4 40 29 71q33 29 79 9t54 5q16 31 29 8q8 -14 2 -37q-8 -33 8 -43q25 -14 15.5 -49t-42.5 -51q-45 -23 -67.5 -21t-61.5 35q-41 33 -45 73zM610 557q0 14 14.5 14t14.5 -22q0 -25 -18 -12q-11 8 -11 20z" />
<glyph unicode="(" horiz-adv-x="368" d="M20 416q0 29 10.5 40t21.5 11t18.5 12.5t3.5 42.5q-8 43 19.5 102.5t27.5 69.5q0 25 39 82.5t84 100.5q80 76 96 38q4 -6 2 -20q-2 -29 -33 -143q-47 -174 -40 -400.5t65 -382.5q14 -39 13 -61.5t-14.5 -26.5t-41.5 10q-29 16 -78 81t-49 85q0 14 -25.5 53.5t-19.5 53.5 q6 18 -17 26q-16 6 -16 53.5t5 83t-11 42.5q-16 0 -16.5 -21.5t-13.5 -21.5t-21.5 25.5t-8.5 64.5z" />
<glyph unicode=")" horiz-adv-x="364" d="M21.5 -93.5q-1.5 13.5 7 30t19.5 52.5t23.5 84t20.5 134t8 190q0 307 -57 439q-31 68 -20 82q25 41 100 -41q63 -68 102 -162q41 -100 58 -101q14 0 9 -87t9 -87q16 0 16 37t15 37q8 0 10 -54t-1 -108.5t-11 -54.5q-13 0 -13 -23q0 -16 -35.5 -93t-35.5 -85 q0 -23 -50.5 -93.5t-89.5 -100.5q-35 -27 -47 -30t-24 11q-12 10 -13.5 23.5z" />
<glyph unicode="*" horiz-adv-x="491" d="M20 766q4 41 21.5 60.5t34.5 19.5q14 0 61 -49t47 -64q0 -12 -84 -10q-59 2 -70.5 7t-9.5 36zM58.5 572.5q-4.5 29.5 50.5 62.5q72 37 92 16q8 -8 -29 -79.5t-47 -71.5q-12 0 -37 21.5t-29.5 51zM190.5 895q-2.5 14 14.5 27q25 27 74 9t49 -50q0 -23 -33 -66t-49 -43 q-6 0 -12.5 9.5t-6.5 21.5q0 20 -9 39.5t-17 29t-10.5 23.5zM262 643q8 12 36 -8.5t60.5 -52t40.5 -35.5q6 -4 -10 -22.5t-38.5 -36t-31.5 -17.5q-31 0 -50 76t-7 96zM299 715q0 10 68.5 48t83.5 34q16 -4 20 -52.5t-10 -60.5q-12 -12 -87 2.5t-75 28.5z" />
<glyph unicode="+" horiz-adv-x="651" d="M20 449v100l232 14l2 103q4 100 11.5 118.5t68.5 14.5l61 -4l2 -95q0 -104 13.5 -123.5t81.5 -19.5q92 0 117.5 -12.5t21.5 -50.5q-2 -29 -10.5 -36t-30.5 -5q-133 10 -169 10t-46 -14q-14 -16 -1 -28.5t-3 -33.5q-12 -14 -32 -85t-40 -75q-16 -2 -21.5 10.5t-5.5 55.5 q-2 102 -20.5 121.5t-116.5 25.5zM348 209q-2 14 8 31q18 29 18.5 50t14.5 21q8 0 12.5 -27.5t0 -58t-14.5 -37.5q-14 -8 -25.5 -0.5t-13.5 21.5z" />
<glyph unicode="," horiz-adv-x="284" d="M22 165q-4 46 25 77q23 25 63 25.5t70.5 -21t30.5 -51.5q0 -29 18 -35q8 0 11 14q0 23 16 23q8 -4 8 -20.5t-9 -40t-19 -30.5q-16 -12 0 -12q39 0 -25 -76q-49 -59 -55 -65q-25 -33 -71 -50.5t-62 1.5q-14 12 51 59q78 55 65 82q-4 6 -18 6q-20 0 -60 37q-35 31 -39 77z " />
<glyph unicode="-" horiz-adv-x="356" d="M23 475q-6 41 2 64q8 20 58 16t96 -15.5t63 -17.5q49 -20 63 -4q16 16 27 4q8 -10 -4 -20t-29 -39q-10 -18 -34.5 -23.5t-110.5 -5.5h-127z" />
<glyph unicode="." horiz-adv-x="270" d="M21.5 199.5q6.5 42.5 31.5 60.5q37 25 85 20.5t79 -34.5q31 -29 33 -53.5t-21 -69.5q-12 -25 -26.5 -34t-38.5 -9q-16 0 -33.5 4t-28 8t-20.5 8t-12 4t-4 -4q4 -23 -2.5 -27.5t-20.5 7.5q-29 25 -20 39q2 6 12 -2q14 -8 14 6t-14 22q-20 12 -13.5 54.5z" />
<glyph unicode="/" horiz-adv-x="526" d="M27.5 -26.5q-15.5 10.5 5.5 46.5q16 33 36.5 103t39.5 102q14 29 68 191t110 272q39 76 63.5 146t20.5 90q-6 25 29.5 49t78.5 8q37 -14 23 -27q-14 -10 -53 -2q-43 6 -41 2q0 -2 8 -10q29 -27 28 -51q0 -16 7.5 -29.5t13.5 -18.5t3 -17.5t-22 -34.5q-25 -31 -30.5 -77 t-20.5 -73q-16 -27 -21 -74t-30 -112q-23 -57 -46.5 -129t-36.5 -108t-19 -44q-12 -14 -12.5 -39.5t-12.5 -52.5l-33 -68q-14 -27 -28.5 -36t-46.5 -13q-66 -4 -81.5 6.5z" />
<glyph unicode="0" horiz-adv-x="692" d="M20 549q-2 102 29 168q27 55 84.5 114.5t104.5 79.5q41 16 53 2t-4 -63q-10 -35 -16.5 -188.5t-10.5 -291t-8 -141.5t3 -37.5t7 -65.5t-18 -32q-8 0 -43 51q-39 57 -54 52q-6 -2 7 -27q20 -39 0 -37q-27 4 -50 37q-6 12 -6 23q0 18 -14 18q-10 0 -13 10t1 21.5t12 13.5 q10 6 9 18.5t-12 24.5t-24 12q-18 0 -25 43t-12 195zM379 898q4 36 41 26q59 -18 126.5 -89t94.5 -143q20 -57 28.5 -174t-8 -126t-16.5 -38q0 -41 -38 -99t-91 -97q-72 -53 -72 -64.5t-22 -3.5q-12 4 -12 15.5t9 25.5t18 32.5t14.5 40t-0.5 44.5q-16 55 -22.5 197.5 t-14 262.5t-21.5 138q-18 16 -14 52z" />
<glyph unicode="1" horiz-adv-x="407" d="M21.5 66.5q-7.5 11.5 35.5 42.5l43 30v635l-43 39q-55 51 -4 68q27 8 90 12q94 6 138 4l43 -2l-2 -166q-6 -397 -35 -481q-12 -39 -12.5 -52.5t14.5 -13.5q14 0 14 29t16.5 29t8.5 -66q-6 -45 -2 -54t28 -9q18 0 26.5 -6.5t4.5 -16.5q-2 -14 -37 -19.5t-143 -9.5 q-176 -4 -183.5 7.5z" />
<glyph unicode="2" horiz-adv-x="614" d="M24.5 681q-10.5 38 3 70.5t34.5 56.5t44 28q45 8 57.5 6t12.5 -19q0 -20 43 -43q27 -14 35 -27.5t8 -41.5q0 -39 -10 -57.5t-45 -43.5q-70 -47 -135 4q-37 29 -47.5 67zM26.5 63.5q-14.5 16.5 2.5 73.5q27 88 131 117q31 8 112.5 -11.5t98.5 -19.5q18 0 72.5 -27.5 t66.5 -19.5q16 10 -14 23q-45 16 -25 30q12 10 43 11q14 0 30.5 1t22.5 2t12.5 -2t8.5 -11.5t4 -22.5q6 -61 -56.5 -115.5t-138.5 -54.5q-49 0 -159 31q-80 20 -102.5 21t-49.5 -15q-45 -27 -59.5 -10.5zM125 324q-8 14 18 30q47 23 111.5 84.5t91.5 104.5q16 29 23.5 54.5 t7.5 43.5t-1 65.5t-1 92.5q2 55 7 64t36 3q90 -20 133 -68t43 -132q0 -86 -47 -145.5t-150 -108.5l-139 -66q-111 -55 -133 -22zM305 848q0 14 19 8q10 -4 17 -20.5t7 -32t-10 -15.5t-21.5 20t-11.5 40z" />
<glyph unicode="3" horiz-adv-x="655" d="M31 182q-31 78 37 135q82 70 145 -8q29 -33 24.5 -61.5t-42.5 -71.5q-27 -31 -30 -43t7 -22.5t10 -22.5q0 -39 -55 -10q-70 35 -96 104zM51 703q-4 45 22.5 83t71.5 48q29 6 76 -45.5t47 -88.5q0 -59 -63.5 -84.5t-112.5 13.5q-37 29 -41 74zM240 888.5q0 14.5 6 14.5 q10 0 16 -18q4 -10 -6 -11q-16 0 -16 14.5zM293 487.5q2 12.5 41 12.5q37 0 56.5 33.5t16 68.5t-9.5 51q-14 10 -12 19.5t9 11.5t16.5 20.5t11.5 49.5q4 41 -2 43q-2 2 -12 -13q-39 -51 -39 -2q0 25 -22.5 50.5t-8.5 25.5q12 0 43 -20q23 -16 28 -14.5t5 26.5q0 41 18 39 q6 0 12 -12q4 -8 31 -20.5t63.5 -40.5t61.5 -75l35 -65l-27 -62q-29 -61 -80 -84q-59 -29 -49 -55q6 -12 33 -16q31 -4 74 -58q29 -35 36 -59.5t7 -75.5q0 -57 -8.5 -77.5t-45.5 -59.5q-74 -76 -182 -90q-78 -10 -74 31q0 16 21 41q25 27 33 97.5t6 115.5t-4 65 q-6 33 -15.5 47.5t-33.5 24.5q-35 14 -33 26.5z" />
<glyph unicode="4" horiz-adv-x="698" d="M33 317q12 33 73.5 108t73.5 75q6 0 -5 -30t-31.5 -65.5t-34.5 -52.5q-31 -35 10 -43q20 -4 69 -4q53 0 67.5 -5t14.5 -24q0 -20 -19.5 -25t-98.5 -9q-98 -4 -118.5 9t-0.5 66zM272.5 87q1.5 9 26.5 30q29 23 35 51.5t10 159.5q2 72 7 136t9.5 98t6.5 60.5t1 40t-10 23.5 q-8 10 -0.5 24.5t41.5 43.5q55 49 47 57q-10 6 -17 1t-19.5 -14.5t-18.5 -9.5q-35 0 33 68q33 35 50.5 42t21.5 -3t12 -22.5t24 -12.5q14 0 18.5 -32.5t10.5 -165.5q2 -74 4 -119l8 -224l39 -6q47 -4 63.5 -34.5t-59.5 -40.5q-27 -4 -36 -12.5t-13 -35.5q-4 -41 37 -74.5 t27 -47.5q-16 -16 -171 -17.5t-175 15.5q-14 12 -12.5 21z" />
<glyph unicode="5" horiz-adv-x="634" d="M21 229.5q10 53.5 43.5 89t54.5 35.5q29 0 62.5 -19.5t51.5 -43.5q18 -29 16.5 -40t-32.5 -42q-27 -29 -35 -58.5t-3 -46t0 -27.5t-27 -11q-33 0 -82 47q-59 63 -49 116.5zM77 508q19 35 46 27t37 8q4 4 18.5 14t31.5 17.5t30.5 0t13.5 -33.5q0 -29 -79 -68t-97 -20 q-20 20 -1 55zM104 649q12 18 19 0q2 -6 2 -14t-5 -12t-11 0q-14 8 -5 26zM111 829.5q-6 49.5 8 61.5q6 8 229 6q152 0 187.5 -5t35.5 -22q0 -27 -61 -84t-102 -69q-55 -14 -152.5 1t-120.5 42q-18 20 -24 69.5zM317.5 56.5q-12.5 21.5 14.5 62.5q35 51 61 282q6 51 3 68.5 t-17 24.5q-25 10 -23 27.5t31 29.5q31 14 98 -19q78 -37 103.5 -78.5t25.5 -134.5q0 -70 -7 -97t-36 -68q-68 -92 -198 -113q-43 -6 -55.5 15.5z" />
<glyph unicode="6" horiz-adv-x="675" d="M23 451q-4 82 1.5 113.5t32.5 84.5q39 76 81 128t77 52q31 2 32 -2t9 -335q6 -225 11 -286t26 -93q41 -66 -6 -70q-59 -4 -144 76l-12 12q-100 104 -108 320zM231 889q0 8 8.5 11t22.5 0t29 -11q10 -14 -19 -15q-41 1 -41 15zM387 49q-8 10 25.5 156.5t15.5 177.5 q-10 14 -1 23.5t16.5 15.5t-13.5 31q-23 25 -24.5 48t16.5 31q20 8 72.5 -2t78.5 -28q82 -51 82 -183q0 -70 -15 -110.5t-60 -89.5q-29 -31 -103 -57.5t-90 -12.5zM391 686q0 14 18.5 35.5t37 39t27.5 40t-13 41.5q-14 14 -6 30q25 41 108 -41q104 -104 29 -186 q-27 -29 -76 -32t-87 17.5t-38 55.5z" />
<glyph unicode="7" horiz-adv-x="583" d="M20.5 757.5q-0.5 14.5 14 14.5t14.5 -14.5t-14 -14.5t-14.5 14.5zM63 733q-2 8 21 21q2 2 8 4q20 12 41 57t37 45q21 1 39 21q16 20 82.5 20t103.5 -20q33 -18 72 -19.5t56.5 16t33.5 -0.5q16 -16 -2 -63.5t-57 -88.5q-27 -31 -46.5 -35t-99.5 2q-285 23 -289 41z M63.5 867.5q-0.5 21.5 14 21.5t14.5 -21.5t-14 -21.5t-14.5 21.5zM136 203q-1 49 30 115.5t94 132.5q84 90 92 90q12 2 23.5 -36t3.5 -54q-10 -18 -5 -81t21 -122q25 -82 -12 -146.5t-109 -64.5q-35 2 -67.5 21.5t-51 57.5t-19.5 87zM395.5 542.5q-0.5 14.5 14 14.5 t14.5 -14.5t-14 -14.5t-14.5 14.5z" />
<glyph unicode="8" horiz-adv-x="671" d="M20 256q0 68 7.5 90.5t38.5 52.5q45 45 92 56q53 10 52 29.5t-58 43.5q-66 27 -91 64q-31 49 -7 123.5t81 105.5q18 10 30.5 23.5t16.5 17.5t14.5 3t32.5 -13q27 -14 35 -28.5t8 -43.5q0 -51 -24.5 -52t-7.5 -7q14 -6 11 -41t-6 -71t19 -66q16 -18 19.5 -39t-4.5 -72 q-10 -84 -7.5 -190.5t17.5 -132.5q37 -72 -39 -70q-37 0 -96 20q-78 27 -106 67t-28 130zM371 80q16 121 19 231.5t-7 141.5q-10 35 -9 43t8 16t16.5 13t18.5 33t11 75q5 194 25 225q27 41 100 -45q37 -43 48 -80t7 -102q-2 -33 -34.5 -68t-52 -27.5t-47.5 -8t-28 -33.5 q0 -20 46 -37q57 -20 77.5 -34.5t46.5 -53.5q57 -84 22.5 -180.5t-132.5 -129.5q-74 -25 -106.5 -19.5t-28.5 40.5zM389 801.5q0 29.5 14.5 29.5t14 -29.5t-14.5 -29.5t-14 29.5z" />
<glyph unicode="9" horiz-adv-x="673" d="M23 676q14 143 131 215q47 29 81.5 23.5t32.5 -40.5q-2 -55 -17 -178t-24 -139q-10 -23 21 -57q29 -33 13.5 -52.5t-68.5 -15.5q-92 8 -136.5 72.5t-33.5 171.5zM61 236q0 35 7 53.5t30 36.5q35 27 80 28.5t74 -22.5q51 -47 -12 -107q-37 -35 -33 -86q6 -53 -21.5 -56 t-74.5 44q-31 29 -40.5 49.5t-9.5 59.5zM281 514q-4 12 2 14q14 2 24 -16q6 -12 -12 -14q-8 0 -14 16zM353.5 893.5q-1.5 17.5 7 28t16.5 10.5q49 0 126 -65.5t115 -139.5q23 -47 29 -85t6 -140q2 -131 -16.5 -182.5t-89.5 -122.5q-74 -72 -135 -93q-18 -8 -19 2 q0 6 9.5 22.5t19.5 36t19.5 38t8.5 34t-14 19.5q-14 4 -22 293q-6 201 -12.5 249t-26.5 62q-20 16 -21.5 33.5z" />
<glyph unicode=":" horiz-adv-x="264" d="M21 620q5 40 40 58q37 20 66 20t68 -20q29 -14 36 -28.5t7 -57.5q0 -63 -23 -86q-18 -16 -54 -19.5t-46 13.5q-8 14 -35 -4q-33 -20 -41 -4q-4 10 10 26q16 20 -6 39q-27 23 -22 63zM22 181.5q-2 56.5 31 79t80 21.5t78 -26q27 -23 31 -74t-19 -80q-16 -20 -64 -20 t-65 20q-18 23 -37 23q-33 0 -35 56.5zM23 104q0 6 21.5 6.5t21.5 -24.5q-2 -39 -43 18z" />
<glyph unicode=";" horiz-adv-x="286" d="M20 178q0 6 11.5 26.5t35 42t50.5 21.5q31 0 68.5 -28.5t37.5 -51.5q0 -20 21 -12q20 8 22 -8q0 -12 -14 -23q-10 -6 -9 -30.5t4 -42t-9 -21.5q-14 0 -45 -57q-25 -47 -73 -77t-81 -17q-20 8 6 34q12 12 39 37l72 62l-45 24q-33 16 -62 55t-29 66zM49 606q0 29 8 44.5 t33 27.5q76 41 137 -6q33 -27 38 -72t-15.5 -80t-56.5 -35q-29 0 -87 35q-37 23 -47 39t-10 47zM55 502q-4 12 8 12q14 0 14.5 -14.5t-5.5 -14.5q-10 0 -17 17z" />
<glyph unicode="&#x3c;" horiz-adv-x="569" d="M20 547q8 29 163 105.5t169 76.5q29 2 -20 -39q-78 -66 -82 -78q-2 -2 -2 -4q0 -12 29.5 -32.5t95 -60.5t98.5 -62l72 -47l4 -101q6 -98 -8 -112q-8 -8 -45 13t-90.5 60t-75.5 51q-43 25 -103 68l-133 94q-31 20 -52.5 41t-19.5 27zM504 793q6 10 12 10t6 -15.5 t-16 -15.5t-2 21z" />
<glyph unicode="=" horiz-adv-x="647" d="M21 366.5q-2 39.5 10 51.5q10 10 206.5 4t294.5 -21q55 -6 70.5 -13t15.5 -26q0 -16 -14 -26t-57 -19q-76 -18 -284 -19t-226 17q-14 12 -16 51.5zM21.5 623.5q-5.5 40.5 8 53.5t195 9t236.5 -18q72 -20 88 -15q18 6 48 -11t30 -34q0 -23 -59.5 -32t-256.5 -15 q-248 -8 -270 10q-14 12 -19.5 52.5z" />
<glyph unicode="&#x3e;" horiz-adv-x="575" d="M20 662v96q1 98 11 106q0 2 2 2q8 8 31.5 -6t162.5 -108q16 -12 27 -19q201 -137 251 -175t50 -50q0 -20 -157.5 -105.5t-172.5 -70.5q-6 8 17.5 26.5t52.5 43t29 44.5q0 10 -18.5 22.5t-74 45.5t-112.5 76zM63 268q0 14 14.5 14.5t14.5 -6.5q0 -10 -16 -16q-13 -4 -13 8 zM163.5 311.5q-0.5 14.5 22.5 14.5q25 0 13 -17q-8 -12 -21 -12q-14 0 -14.5 14.5z" />
<glyph unicode="?" horiz-adv-x="569" d="M20 797q0 27 60 80q84 74 106 12q2 -10 4 -27q4 -45 18.5 -45t14.5 -51q0 -31 -8 -44t-36.5 -28.5t-45 -16.5t-43.5 11q-31 12 -50.5 43t-19.5 66zM107 181q-1 56 32 79q31 23 76 23q109 0 109 -107q0 -61 -19 -78q-18 -18 -64 -17t-61 21q-18 23 -37 23q-35 0 -36 56z M169 489.5q3 100.5 17 104.5l82 20q33 8 50.5 19.5t22.5 21t17.5 39t24.5 54.5t12 66.5t8 49.5q12 12 51.5 -15.5t70 -77.5t22.5 -91l-15 -74q-12 -61 -97 -127.5t-154 -66.5q-25 0 -43.5 -12.5t-24.5 -25t-15.5 -16.5t-17.5 11q-14 20 -11 120.5zM338 845.5 q0 28.5 14.5 28.5t14 -28.5t-14.5 -28.5t-14 28.5z" />
<glyph unicode="@" horiz-adv-x="858" d="M23 465q-18 197 153 360q43 39 74 47.5t43 22.5q23 27 138.5 30t127.5 -10q14 -10 59 -18q39 -8 110 -73.5t60 -84.5q-6 -10 -29.5 12.5t-50 51t-36.5 28.5t-16.5 5.5t-14.5 12.5t-43 14t-96 9q-82 2 -112 -4t-73 -30q-61 -39 -122.5 -99.5t-61.5 -83.5q0 -25 -14 -34 q-14 -8 -13.5 -124t17.5 -153q57 -133 194.5 -189.5t303.5 -13.5q41 10 56 9.5t30 -17.5q33 -33 -19 -49q-31 -10 -104 -21q-238 -35 -389.5 74t-171.5 328zM244 420q2 55 18.5 104t40 80t50 52.5t47 29.5t30.5 4q12 -4 16.5 -7t2 -9t-10.5 -14.5t-26 -24.5q-35 -33 -21 -31 h6q14 6 19.5 -2t5.5 -39q0 -29 -5 -39t-22 -10q-16 0 -20 -12.5t-2 -48.5q2 -39 10 -69t15.5 -42t7.5 -24.5t-13 -26.5q-41 -49 -110 12q-29 23 -35 42.5t-4 74.5zM469 329.5q-4 20.5 0 67.5q4 72 22.5 162t32.5 117q14 25 70 24q23 0 35 -1t19 -5t9 -8t-1 -16.5t-7 -21.5 t-14 -30.5t-19 -39.5q-8 -23 -26 -60q-31 -66 -17 -74q6 -4 14.5 -4t15.5 -8t7 -19.5t-7 -20.5t-15 -9q-18 0 -21.5 -19.5t15.5 -29.5q16 -12 10 -26.5t-35 -26.5q-25 -8 -37 -6.5t-29.5 18t-21.5 37zM696.5 311.5q-0.5 14.5 14 14.5t14.5 -14.5t-14 -14.5t-14.5 14.5z M754 412q0 14 14 14t14 -6q0 -10 -16 -17q-12 -3 -12 9zM760 348q0 8 7 13.5t15 -1.5q8 -6 8.5 -13t-7 -12t-15.5 -1q-8 6 -8 14zM793 690q14 20 34 2q4 -2 7 -6q10 -16 0.5 -23t-29.5 1q-27 10 -12 26zM797 571.5q0 14.5 14 14.5t14 -14.5t-14 -14.5t-14 14.5z" />
<glyph unicode="A" horiz-adv-x="821" d="M22 52q-1 2 -2 6q0 18 50 63q58 53 73 119q53 208 84 239q20 20 26.5 13t-5.5 -31q-12 -20 -25.5 -124t-25.5 -136q-10 -35 -6 -47.5t38 -40.5q41 -34 41 -52q0 -4 -2 -6q-10 -16 -124 -17h-13q-100 -1 -109 14zM276 279q0 27 52 43q14 6 32 6q39 4 43 14q1 3 1 10 q0 33 -21 162q-23 123 -23 195q0 45 -9 72.5t-14 28.5t1 19q8 13 54 15h19q38 0 78 -8q29 -6 43.5 -20.5t32.5 -55.5q23 -49 57.5 -172t55.5 -162q6 -12 34.5 -141t61.5 -172q28 -38 28 -55q0 -4 -1 -7q-10 -14 -195.5 -14t-193.5 14q-10 16 20 51q23 23 25 36.5t-8 47.5 q-14 41 -40 54.5t-90 13.5q-45 0 -43 25zM461 874q-1 12 27 14h6q23 0 30 -11q4 -6 4 -11.5t-4 -9.5t-13 -4t-23 4q-28 8 -27 18z" />
<glyph unicode="B" horiz-adv-x="802" d="M23 866q5 14 35 18q16 2 53 3q33 0 84 -2l161 -4l2 -129q0 -70 -7 -162t-14 -150t-9 -118v-16q0 -44 10 -50q12 -20 7 -21.5t-18.5 -18.5t-15.5 -48q-2 -51 -14 -69.5t-47 -18.5q-43 0 -53 -14q-7 -11 -56 -11q-5 1 -13 1q-62 2 -77 16q-8 8 15 30q16 14 20 77t4 276v329 l-39 29q-30 22 -30 42q0 6 2 11zM334 117q0 37 14 37t14 -37t-14 -37t-14 37zM412 54q-2 3 -1 6q0 17 38 51q33 29 39 50t6 103q0 113 -29 160q-24 42 -24 61q0 14 14 15q33 0 53 47q19 45 19 87q0 46 -9 66q-12 12 -5 23.5t15.5 24t-12.5 45.5q-18 31 -11 42t42 11 q33 0 33 22q0 6 6 6q16 0 74 -46q80 -62 96 -119q6 -22 6 -44q0 -45 -26 -87q-38 -60 -105 -68q-43 -4 -43 -32.5t28 -33.5q57 -8 80 -21t49 -50q37 -53 37 -119q0 -57 -22.5 -93t-83.5 -81q-37 -29 -64.5 -36t-91.5 -7q-98 1 -108 17zM424 827q-1 3 -1 5q0 7 9 8 q20 -2 31 -21q2 -2 2 -6q0 -11 -8 -11q-6 0 -15 5q-14 8 -18 20z" />
<glyph unicode="C" horiz-adv-x="710" d="M29 358q-6 43 -6 84q0 59 12 117q18 94 55 148.5t109 95.5q76 43 76 57q-1 14 13 6t14.5 -142t10.5 -355q6 -158 12.5 -195t30.5 -59q32 -29 32 -51q0 -4 -1 -8q-7 -23 -50 -23h-7q-63 0 -101.5 16.5t-83.5 59.5q-55 55 -79.5 105t-36.5 144zM530 100q35 37 64 87.5 t44 74t32 17.5q18 -6 19 -40v-4q0 -32 -17 -65q-20 -43 -80 -89q-49 -38 -73 -38q-5 0 -9 2q-12 3 -12 11q0 10 32 44zM541 860q10 6 26 2q29 -4 53 18q21 19 37 20q3 0 5 -1q14 -2 20 -31.5t8 -122.5q1 -29 1 -54q0 -97 -13 -113q-10 -12 -20 -12q-21 0 -37 57 q-6 14 -15 49q-27 94 -45 116q-29 34 -29 54q0 11 9 18z" />
<glyph unicode="D" horiz-adv-x="784" d="M23 866q5 14 35 18q16 2 51 3q31 0 77 -2l156 -4l-2 -187q0 -352 -27 -397q-10 -16 2.5 -27.5t21.5 -17.5t-9 -27q-23 -18 -23 -63q0 -82 -65 -82q-29 0 -47 -17q-13 -13 -68 -13h-8q-62 1 -76 18q-14 12 10 34q14 14 18.5 76t4.5 275q0 233 -4 284t-27 74q-23 24 -23 43 q0 6 3 12zM319 111q1 14 15 14t14 -15.5t-14 -15.5q-15 0 -15 17zM426 102q6 6 14 15q29 25 34 53.5t7 151.5q0 145 4 193t19 122q6 32 6 53q0 28 -10 41q-20 20 -4 37.5t0 38.5q-17 20 -13 24q10 11 46 11h3q33 0 33 -11q0 -10 37 -30q76 -41 123 -151q39 -91 39 -186 q0 -20 -2 -40q-12 -125 -53 -201t-136 -145q-57 -41 -106 -41q-16 0 -31 4q-26 8 -26 26q0 14 16 35z" />
<glyph unicode="E" horiz-adv-x="692" d="M22 874q8 13 100 13q31 0 73 -2l159 -4v-187q0 -127 -8 -302t-12 -175t-21 -63q-12 -47 -27.5 -59.5t-38 -14.5t-38.5 -14q-10 -10 -58 -10h-22q-68 2 -78 16q-10 8 15 30q14 14 18 78t4 279v334l-39 30q-29 26 -29 42q0 5 2 9zM334 95.5q0 15.5 14 15.5t14 -15.5 t-14 -15.5t-14 15.5zM424 866q8 20 29 20h1q22 0 95 -26q81 -26 99 -60q15 -27 14 -74q0 -10 -1 -24q-4 -64 -24 -65q-16 0 -27.5 16.5t-18.5 40t-31.5 51t-63.5 46.5q-52 23 -66 37q-9 9 -9 23q0 7 3 15zM476 476q3 7 12.5 30.5t17.5 54.5q19 67 31 67q9 0 14 -38 q6 -43 6 -129q0 -96 -4 -126t-18 -30q-20 0 -33 43l-25 82q-5 14 -5 24q0 12 4 22zM524 121q39 41 39 51.5t39 69.5q30 49 47 49q11 0 17 -19q6 -29 6 -106v-121l-66 -4q-10 -1 -20 -1q-48 0 -72 17q-21 14 -21 23q0 7 31 41z" />
<glyph unicode="F" horiz-adv-x="669" d="M23 61q-2 6 -2 12q0 18 24 33q23 14 27 60q4 47 4 297q0 307 -13 336q-4 12 -18 20q-24 15 -24 33q0 6 2 12q7 16 35 20q15 2 50 3q32 0 80 -2l156 -4l-4 -166q-10 -385 -35 -473q-10 -38 -10 -56q0 -12 4 -16q2 -2 5 0t7 8t6 15q8 33 17 32h1q15 0 15 -63q0 -43 5 -52.5 t26 -3.5q18 4 23.5 -1t1.5 -23q-2 -20 -27 -27q-27 -6 -162 -12q-70 -2 -111 -2q-30 0 -44 1q-32 3 -39 19zM412 868q6 22 18 21q16 0 97 -25.5t91 -34.5q18 -14 28 -95q4 -33 3 -54q0 -32 -8 -39q-14 -14 -41 25q-35 51 -80.5 94t-68.5 43q-27 -1 -36 21q-5 13 -5 26 q0 9 2 18zM467 470q-1 9 -1 17q0 12 2 23q3 18 11 25q16 8 16.5 42t8.5 44q8 8 15 8q15 0 22 -43q6 -35 9 -103q1 -22 0 -40q0 -99 -18 -124q-12 -18 -18 -19h-1q-5 0 -9 11l-5 19q-5 20 -11.5 40.5t-12.5 49t-8 50.5z" />
<glyph unicode="G" horiz-adv-x="747" d="M20 457q2 113 24 169t87 117q66 62 66 72q-2 16 6 19.5t43 3.5h47l2 -115q10 -602 43 -629q18 -16 18 -35q0 -35 -36 -35q-16 0 -39 7q-66 18 -134 82q-74 68 -101 141q-26 69 -26 186v17zM390 446q5 15 37 20t130 5q160 0 168 -14q2 -4 2 -11q0 -11 -5 -29 q-9 -30 -21.5 -83t-12.5 -107q0 -88 -32.5 -114.5t-151.5 -38.5q-37 -4 -55.5 -4t-18.5 4q0 8 37 43q23 20 28 33.5t1 23.5t-14.5 45t-16.5 78q-6 37 -20.5 63.5t-29 37t-22.5 22.5q-5 7 -5 16q0 5 2 10zM508 877q14 2 27 2q25 0 43 -9q23 -10 58 10q30 18 42 18q2 0 4 -1 q14 -4 14 -154q0 -90 -4 -120.5t-16 -30.5q-18 0 -43 42t-43 107q-12 37 -36 71t-38 48q-10 10 -10 14q0 2 2 3z" />
<glyph unicode="H" horiz-adv-x="870" d="M23 864q6 16 40.5 20.5t155.5 4.5q185 -1 195 -17q2 -3 2 -7q0 -17 -29 -48l-39 -39l8 -696l-34 -6q-13 -3 -32 -3q-33 0 -83 9q-78 14 -98 29q-4 4 -7.5 8t-5.5 12t-3 16.5t-1 25.5v37.5t-1 53.5t-1 69t-2 90t-4 112q-8 178 -14.5 223t-26.5 59q-22 19 -22 37q0 5 2 10z M35 56.5q0 3.5 18 11.5q26 10 51 10q11 0 22 -2q36 -6 36 -25q0 -12 -41 -13h-7q-36 0 -61 9q-18 6 -18 9.5zM453 63q0 10 24 31q39 30 51 86q11 51 10 113v11v11q0 58 9 86q6 27 -11.5 48.5t-46.5 21.5q-20 0 -21 4t9 14t16.5 17.5t14.5 23t8 31.5q2 31 21 37q8 2 12 17.5 t1 28.5t-13 13q-9 0 -9 34q0 17 2 42q4 33 4 51q0 12 -2 18q-4 14 -30 34q-39 24 -31 36q9 14 189 14q6 0 11 1q169 0 177 -15q2 -3 2 -7q0 -16 -31 -48l-37 -39v-631l37 -38q31 -31 31 -48q0 -3 -2 -7q-10 -16 -195 -17q-199 0 -200 26z" />
<glyph unicode="I" horiz-adv-x="436" d="M23 864q4 16 39.5 20.5t156.5 4.5q185 -1 195 -17q2 -3 2 -7q0 -17 -29 -48l-37 -39v-334q0 -334 14.5 -342t14.5 -30q0 -10 -3 -11.5t-18 2.5q-12 2 -21 4.5t-31.5 5.5t-47.5 5q-84 2 -123 20q-23 12 -29 29q-10 37 -26 479q-4 129 -10.5 163t-26.5 48q-22 19 -22 37 q0 5 2 10zM66 61q0 5 6 11q7 7 25.5 7t47.5 -7q33 -8 31 -21q-4 -14 -51 -14q-60 0 -60 20q0 2 1 4z" />
<glyph unicode="J" horiz-adv-x="686" d="M22 210q-1 6 -1 12q0 45 40 89q31 33 47.5 39t57.5 0q49 -6 81 -33.5t32 -62.5q0 -27 -58 -74q-41 -33 -46 -43t11 -22q25 -18 13 -19q-2 -2 -11 -2q-25 0 -24 -14q0 -27 -43 -8q-23 8 -39 26q-55 61 -60 112zM268 866q10 25 198.5 25t197.5 -25q2 -5 2 -10 q0 -20 -25 -45q-23 -23 -27 -64.5t-4 -224.5q0 -225 -14 -301t-66 -117q-38 -31 -62 -31q-2 0 -4 1q-24 2 -42 -17q-23 -16 -30 -16q-1 0 -2 1q-3 5 -15.5 16.5t-36.5 4.5q-33 -10 -37 13q-2 18 23 24t18.5 29t13.5 33q12 4 19.5 26.5t5.5 44t-12 21.5q-14 0 -25 262 q-6 197 -12 234.5t-35 60.5q-30 25 -30 46q0 5 1 9z" />
<glyph unicode="K" horiz-adv-x="862" d="M20 896.5q0 19.5 25 25.5q8 2 83 6q43 2 90 2q36 0 74 -1q89 -3 111 -20q20 -14 19.5 -20t-23.5 -27q-23 -16 -28.5 -40.5t-5.5 -112.5q0 -80 -8.5 -123t-15.5 -46q-8 -3 -8 -39q0 -30 11 -81q14 -74 14 -101q0 -9 -2 -14q-10 -27 -11 -77v-9q0 -43 9 -63q6 -20 2 -29.5 t-26 -17.5q-17 -6 -43 -6q-25 0 -55 5q-64 11 -99 33q-25 16 -30 44t-11 177q-4 127 -8 220q-6 162 -13.5 209t-25.5 63q-25 23 -25 42.5zM68 86q0 8 14 14q20 8 40 8l54 -14q33 -14 2 -24q-14 -4 -41 -4q-66 0 -69 20zM404 484q6 36 83 143q94 131 95 163q0 31 -39 66 q-29 25 -31.5 32t20.5 23q29 17 90 17q28 0 62 -4q109 -12 120 -22.5t-11.5 -40.5t-42.5 -30q-18 0 -78 -63t-68 -92q-6 -31 -3 -36t13.5 -28.5t16.5 -54.5q18 -131 47 -154q20 -16 16 -43q-1 -8 -1 -17q1 -31 11 -81q14 -65 23 -65q7 0 7 22q0 15 -3 39q-2 37 8 37 q20 -5 37 -59q10 -30 9 -50q0 -15 -5 -24q-6 -14 -1 -18.5t26 -4.5q37 0 37 -21.5t-23 -13.5q-10 4 -15 1t-3 -13q2 -8 -2 -12q-2 -2 -5.5 -2t-9.5 2q-16 4 -59 4q-54 0 -150 -6q-22 -1 -40 -1q-83 0 -82 23q-2 12 18 35q20 20 15 45t-50 154q-33 97 -33 138q0 7 1 12z" />
<glyph unicode="L" horiz-adv-x="669" d="M20 897q0 19 25 25t173 9h32q121 0 168 -20q20 -16 18 -23t-30 -32l-41 -33l-7 -266q-6 -264 -15 -346t-36 -109q-14 -14 -21 -17t-12.5 2t-23 14.5t-41.5 13.5q-66 14 -82 35q-23 35 -29 239q0 27 -2 111q-8 301 -20 329q-6 12 -23 25q-33 19 -33 43zM20 104q0 21 14 21 t14.5 -22.5t-13.5 -22.5q-15 0 -15 24zM72 79q-2 4 -2 8q0 8 12 13q21 8 44 8q14 0 29 -3q40 -7 40 -25q0 -14 -57.5 -14t-65.5 13zM487 104q-2 6 -2 12q-1 8 5 18q10 16 24 32t27.5 36.5t13.5 39.5q0 28 23 71q22 43 37 43q16 0 24 -45q4 -29 8 -75q3 -30 3 -55 q0 -71 -22 -97q-15 -19 -44 -19q-26 0 -64 15q-27 10 -33 24z" />
<glyph unicode="M" horiz-adv-x="948" d="M20 98q0 16 37 47q25 20 33 42t14 85q7 91 24 91q1 0 3 -1q14 -6 23 -81q8 -47 19 -71t44 -52q46 -42 46 -63q0 -5 -3 -9q-16 -20 -117 -20q-123 0 -123 32zM55 854q-29 23 -29 37q0 22 68 22q25 0 76 -4q102 -6 142 -23.5t40 -56.5q0 -14 12.5 -32.5t14.5 -89.5 q2 -82 10 -95q10 -16 22.5 -11t12.5 28q0 29 15.5 28.5t15.5 -21t28 -36.5q19 -10 23 -26q1 -6 2 -15q0 -18 -4 -49q-8 -57 -44 -175t-36 -128q0 -23 -24.5 -75t-34.5 -52q-14 0 -34 48t-42.5 117.5t-30.5 88.5q-14 35 -35.5 108.5t-29.5 92.5q-14 35 -40 113.5t-49.5 130.5 t-48.5 75zM112 402v5v6q1 7 3 14l5 17.5t3 20.5q0 16 10 19t23 -9q8 -8 -8.5 -43t-30.5 -35q-4 1 -5 5zM500 98v5q0 23 32 34q31 12 39 49q10 51 17 351q4 186 10 246.5t23 88.5q26 42 40 42q5 0 9 -5q2 -4 6 -14t34.5 -17.5t60.5 -4t30 15.5q0 14 -15.5 14.5t-15.5 14.5 q0 10 28 12q7 0 14 1q22 0 47 -5q34 -6 48 -17q21 -16 21 -21.5t-13 -13.5q-14 -12 -25 -0.5t-30 5.5q-18 -4 -20 -27v-10q0 -56 12 -408q6 -188 12 -234t27 -63q29 -23 18 -47q-6 -16 -42 -20q-18 -2 -59.5 -2t-105.5 2q-131 2 -165.5 7t-36.5 21z" />
<glyph unicode="N" horiz-adv-x="813" d="M26 85q-5 5 -5 12q0 20 36 57q29 31 36 58.5t11 129.5q4 143 23 143q14 0 25.5 -64.5t11.5 -148.5q0 -37 9 -58t42 -54q46 -44 46 -65q0 -5 -3 -9q-14 -20 -117 -20q-97 0 -115 19zM27 901q8 13 104 13q32 0 74 -1l166 -4l55 -104q55 -106 55 -127q0 -23 33 -81t49 -65 q16 -6 12 -33.5t5 -33.5q14 -8 22 -59q10 -47 22.5 -49.5t18.5 44.5l6 48l19 -43q18 -39 22 -73t15 -54q6 -14 1.5 -19.5t-22.5 -5.5q-20 0 -25.5 -3t-1 -10.5t10.5 -20.5t9 -32.5t-3 -48.5q-10 -35 -21.5 -44t-52.5 -15q-18 -2 -32 -2t-22 2q-18 4 -36 22q-29 31 -29 39 q0 4 -52 96.5t-101 178.5t-54 90l-86 151q-41 72 -87 131.5t-63 81.5q-13 17 -13 26q0 3 2 5zM547 905q7 12 95 12h26q114 -2 123 -16q2 -3 2 -6q0 -18 -43 -57q-37 -33 -44.5 -53.5t-7.5 -90.5q0 -94 -13 -94t-32 96q-10 57 -23.5 87t-41.5 61q-42 42 -42 57q0 2 1 4z M639 542q1 15 15 15t14 -14q0 -15 -15 -15q-14 0 -14 14z" />
<glyph unicode="O" horiz-adv-x="786" d="M24 425q-4 44 -4 83q0 66 11 119q20 92 81.5 159.5t147.5 90.5q41 10 63 10q26 0 23 -15q-4 -12 -27 -32q-20 -18 -23 -62q-1 -19 -2 -65q0 -61 3 -170q6 -236 14 -309.5t31 -98.5t16 -49q-4 -23 -32 -24h-6l-52 8q-28 10 -39 20q-23 20 -36 21q-14 0 -59.5 49t-70.5 96 q-29 51 -39 169zM436 887q6 0 27 -15q35 -23 41 -45q4 -25 -19 -24q-20 -1 -28 24q-4 12 -15 35q-8 17 -8 22q0 3 2 3zM439 100q3 2 11.5 41t17.5 85t18.5 152.5t13.5 244.5q2 102 10 116q12 23 17 65t-5 48q-16 9 -16 29t6 20q10 0 61 -31q111 -63 152 -141t41 -231.5 t-37 -232.5t-143 -156q-41 -33 -86 -41q-13 -2 -23 -3q-26 0 -37 15q-2 10 -2 15q0 4 1 5z" />
<glyph unicode="P" horiz-adv-x="770" d="M23 90q-2 6 -2 12q0 18 24 33q23 14 27 58q4 47 4 290q0 236 -4 288t-27 79q-25 33 -17.5 49.5t48.5 20.5q34 4 88 4q27 0 59 -1q96 -3 111 -14q8 -4 11 -20.5t2 -56t-4 -85t-7 -133.5t-6 -174q-6 -139 -21 -170q-10 -18 -14 -31.5t-1 -20.5t13 -7q14 0 14.5 21.5 t14.5 21.5t14 -66q0 -45 5 -55t24 -4q18 4 23.5 -2t5.5 -27.5t-6 -26.5q-2 -2 -5 -2q-5 0 -14 5q-22 9 -79.5 9t-151.5 -9q-58 -4 -86 -4h-14q-22 2 -29 18zM412 420q-4 6 -5 12q0 16 27 37q27 18 45.5 105.5t19.5 157.5v16q0 58 -7 79q-12 16 2 45q2 4 4 9q10 18 18 18 t55 -16l21 -9q74 -27 96.5 -47t44.5 -77q17 -46 17 -91q0 -76 -50 -147q-80 -113 -217 -113q-57 1 -71 21z" />
<glyph unicode="Q" horiz-adv-x="768" d="M20 480v21q0 120 21 175q60 164 248 209q36 8 54 8q17 0 17 -8q0 -12 -27.5 -36t-31.5 -36q-5 -14 -5 -89q0 -90 7 -267v-31q8 -180 14.5 -228t24.5 -69q26 -27 26 -44q0 -7 -4 -11q-9 -14 -40 -14q-11 0 -23 1q-78 12 -148.5 75t-107.5 155q-23 53 -25 189zM410 248 l51 12q6 0 9 138q1 51 1 104q0 88 -3 181q-5 148 -24 175q-20 33 -14 53q8 18 28 19q1 1 3 1q20 0 65 -18q57 -20 83 -39.5t61 -68.5q41 -55 60 -123q16 -60 16 -104v-12q-3 -48 -6 -87t-1 -43q4 -6 -11 -31.5t-8 -44.5q1 -1 1 -3q0 -24 -68 -115q-31 -41 -20 -41q6 0 31 16 q35 23 34 12q0 -10 -26 -47q-20 -29 -21.5 -38t15.5 -25q20 -25 34 -25q33 0 5 -20q-41 -32 -92 -32q-10 0 -21 1q-16 0 -29 6q-37 16 -88 17q-37 0 -43 6t-2 39q6 27 1 39t-28 26q-33 21 -33 41q0 22 40 31z" />
<glyph unicode="R" horiz-adv-x="858" d="M23 90q-2 6 -2 12q0 18 24 33q23 14 27 60q4 47 4 294q0 238 -4 290t-25 75q-31 34 -21 50q7 12 89 11q34 0 82 -2l161 -4l-4 -86q0 -14 -7 -132t-18.5 -261t-21.5 -166q-12 -51 -2 -53q10 0 22.5 36t22.5 36q8 0 12.5 -21.5t0 -49.5t-12.5 -44t-4 -26.5t27 -24.5 q29 -16 28 -8q-8 16 7.5 16t11.5 -27q-2 -6 -4 -10t-6 -6t-9.5 -2t-15.5 1t-23.5 2t-35 2t-46 0t-60.5 -3t-77 -6q-56 -4 -80 -4h-13q-19 2 -27 18zM422 862q0 12 20 12q18 0 45 -36.5t17 -44.5q-8 -8 -45 23.5t-37 45.5zM439 483q0 11 14 27q35 41 45 83t3 60.5t5 36.5 q14 20 21 65.5t-3 53.5q-14 9 -14 42q0 13 2 30q4 34 18 34h2q2 -2 5 -2q25 -14 79 -37.5t77.5 -43t39.5 -54.5q18 -44 19 -84q0 -36 -16 -70q-32 -70 -113 -89q-41 -10 -53.5 -20.5t-14.5 -37.5q-4 -31 8 -34h3q15 0 61 20q4 1 9 1q22 0 58 -30q40 -33 54 -84q6 -21 5 -39 q0 -26 -12 -45q-18 -31 -0.5 -50t52.5 -11q11 3 19 2q28 0 26 -31q-4 -49 -64 -88q-12 -8 -26 -14q-32 -13 -86 -13q-6 1 -12 1q-64 2 -101 20q-47 25 -57.5 92.5t-11.5 148t-21 115.5q-20 34 -20 45z" />
<glyph unicode="S" horiz-adv-x="667" d="M23 129q-4 37 -4 76q0 72 14 153q0 7 2 9q12 37 41 -7q12 -20 22 -51q23 -74 40.5 -107.5t46 -65.5t22.5 -38t-62 -2h-9q-40 0 -62 -16q-12 -11 -22 -11q-22 0 -29 60zM41 628v15q0 29 6 51q8 28 18.5 49t23.5 46.5t20 44.5q2 8 9 14t17 10t19.5 6t26 4t22.5 4q6 0 9 -5 t3 -13q0 -16 11.5 -23.5t15.5 -9.5t-9 -20q-18 -18 -18 -45q0 -29 41 -64t76 -35q31 0 56.5 -21.5t43.5 -21.5q49 0 104.5 -46t84.5 -109q27 -61 27 -111v-14q-4 -55 -48 -148q-14 -33 -82 -75q-86 -54 -143 -54q-12 0 -23 2q-23 6 -23 21q0 16 27 43q8 8 21 18q51 41 51 86 q0 9 -2 17q-12 54 -94 90q-248 106 -277 209q-12 47 -14 85zM215 918q0 14 43 14t43 -12q0 -6 -21.5 -10.5t-43 -2t-21.5 10.5zM459 866q-16 11 -16 19q0 9 20 14q13 4 33 4q41 1 58 15q13 11 27 11l7 -1q25 -4 30 -126q1 -20 0 -38q0 -88 -20 -105q-13 -11 -24 -11 q-23 0 -35 52q-8 41 -36 99.5t-44 66.5z" />
<glyph unicode="T" horiz-adv-x="747" d="M20 764q1 121 11 129q10 10 47 0t55 -27q12 -8 10 -30.5t-10 -42t-17.5 -49t-9.5 -52.5q0 -29 -20 -48t-43 -11q-14 6 -18.5 32.5t-4.5 98.5zM184 82q-17 14 -17 26q0 17 34 29l37 15l6 757l108 9q87 6 114 6h9q14 -2 21.5 -35t7.5 -91.5t-2 -112.5t-7.5 -126t-5.5 -102 q-4 -94 -6 -95q-2 0 -6 -30.5t-3 -61t18 -30.5q18 0 18 -58q0 -41 5 -48t32 -1q29 6 35 -8t-13 -43q-6 -11 -11 -11h-1q-6 1 -18 13q-11 12 -41 12q-18 0 -43 -4q-96 -18 -175 -21q-14 -1 -26 -1q-56 0 -70 12zM570 876q-1 8 -2 15q0 21 12 33q8 3 13 3h3q6 -1 28.5 -5 t47.5 -4q43 0 49 -28q1 -6 1 -14q0 -30 -17 -90q-23 -77 -42 -77q-14 0 -26 45q-10 43 -39 69q-22 21 -28 53zM698 657q0 15 14 15h3q12 0 12 -6q0 -10 -18 -17q-3 -1 -5 -1q-6 0 -6 9z" />
<glyph unicode="U" horiz-adv-x="802" d="M22 858q-1 5 -1 10q0 16 8 25q10 10 180 10q160 0 186 -20q9 -7 9 -18q0 -18 -25 -44q-25 -25 -31 -62.5t-14 -185.5q-14 -277 -16 -349v-14q0 -61 12 -91q10 -37 5 -42t-15.5 -11.5t-10.5 -22.5q0 -20 -10 -20q-20 2 -113.5 78.5t-99.5 97.5q-8 27 -17.5 311.5 t-29.5 306.5q-14 18 -17 41zM377 46q-2 4 -2 13t2 23q4 27 9 32t17 -5q23 -18 20 -45t-26 -27q-16 0 -20 9zM530 881q6 14 29 18q12 2 36.5 2t61.5 -2q82 -2 101.5 -7t23.5 -26v-6q0 -27 -32 -49q-35 -23 -44.5 -76t-13.5 -243q-8 -299 -61 -320q-12 -5 -19 -5q-8 0 -11 6 q-5 11 16.5 26.5t23.5 66.5v16q0 66 -12 279l-13 215l-47 39q-41 34 -41 57q0 5 2 9z" />
<glyph unicode="V" horiz-adv-x="784" d="M41 827q-20 20 -20 35q0 28 71 37q39 4 127 4q115 0 145.5 -5t41.5 -24q14 -27 -9 -45q-16 -13 -16 -58q0 -11 1 -25q5 -66 32 -130q20 -49 20 -102q0 -43 11.5 -65.5t11.5 -40.5q2 -39 7 -85.5t5 -64.5t-5 -46t-20 -58q-23 -47 -36 -56.5t-51 -9.5t-50 9t-26 48 q-14 35 -23.5 69t-17 56.5t-23.5 48.5q-23 39 -43 127.5t-45 153.5q-8 20 -22.5 72.5t-30 93.5t-35.5 61zM440 86q-3 3 -3 8q0 10 14 27q18 20 24 4q2 -10 -4 -23q-5 -12 -15 -17q-4 -2 -8 -2q-5 0 -8 3zM506 462.5q0 22.5 14.5 22.5t14 -22.5t-14.5 -22.5t-14 22.5z M511 855q-1 2 -1 4q0 9 10 22q17 22 116 22h9q103 -1 117 -21q3 -4 2 -8q0 -22 -53 -69q-35 -33 -53.5 -63.5t-36.5 -94.5q-31 -104 -43 -104q-14 0 -20.5 17.5t5.5 29.5q14 16 15 110q0 63 -6.5 83t-32.5 42q-25 20 -28 30z" />
<glyph unicode="W" horiz-adv-x="1056" d="M22 856q-1 4 -1 7q0 10 10 18q12 14 50 18q19 2 56.5 2t93.5 -2q121 -2 152 -7t35 -22q4 -27 -17 -51q-16 -18 -15 -43.5t20 -118.5q29 -137 43 -187t14 -110.5t-14 -70.5q-8 -4 -9.5 -9.5t-0.5 -13.5t-7 -34.5t-29 -67.5q-25 -49 -40 -66.5t-35 -17.5q-51 0 -52 74 q0 18 -16 51t-49 122t-66 216q-12 49 -30.5 107.5t-26.5 90.5q-6 31 -22.5 55.5t-27.5 34t-16 25.5zM412 86q-4 4 -4 10q0 9 6 23q8 18 10 18t6 -18q8 -33 -6 -39q-6 -2 -12 6zM492 592q0 20 24.5 77.5t34.5 106.5t29.5 62.5t36 2t36 -23.5t27.5 -8q4 4 4 -6q2 -45 8 -51 q16 -8 17 -37q0 -27 24.5 -87.5t48.5 -119.5q25 -60 37 -146q4 -26 4 -51q0 -59 -20 -114q-6 -23 -13.5 -49.5t-11.5 -38t-8 -25.5t-8 -19.5t-8 -11.5t-12.5 -8t-15.5 -3t-21 -1q-13 -1 -25 -1q-72 0 -72 60q0 10 -58 231.5t-58 260.5zM563 891q0 6 17.5 9t37 0t25.5 -11 q8 -14 -4 -21q-12 -8 -44 1.5t-32 21.5zM814 880q10 22 112 23q72 0 98 -11q17 -7 16 -18q0 -6 -4 -14q-14 -20 -37.5 -42.5t-48 -54.5t-24.5 -56q0 -23 -7 -45.5t-17.5 -34t-20.5 -4.5q-7 5 -7 32q0 18 3 47q3 26 3 43t-2 25q-6 18 -32 47q-33 33 -33 54q-1 5 1 9zM827 560 q1 40 13 40t12 -43t-12 -43q-13 0 -13 46z" />
<glyph unicode="X" horiz-adv-x="765" d="M20 51q-1 1 -1 3q0 19 81 104q79 79 104 79q10 0 11 -12q0 -12 -14 -22q-18 -12 -11 -41t33 -45q31 -20 35 -40t-20 -30q-22 -8 -90 -8h-28q-92 2 -100 12zM29 864q0 4 30.5 4t92.5 -4q41 -3 68 -3q54 0 54 11q0 16 27 17q16 0 20.5 -6t0.5 -23q-8 -27 2 -26q8 -2 45 20 q47 31 43 6q-2 -14 -21 -49q-28 -50 -28 -69q0 -11 10 -11l8 4q23 8 31 -6t-6 -35q-14 -16 -7 -34.5t19 -32t16 -13.5q8 0 30.5 -43t61.5 -115.5t76 -123.5q33 -48 33 -68q0 -16 21.5 -38.5t21.5 -37.5q0 -18 37 -63q28 -33 28 -52q0 -13 -14 -20q-35 -16 -190 -16 q-174 0 -187 22q-8 12 8 43q14 27 6 52.5t-71 156.5q-266 532 -266 553zM468 848q-3 6 -2 12q0 11 9 21q18 23 120 22h5q107 -1 115 -21q1 -2 1 -4q0 -23 -67 -88.5t-91 -65.5q-3 0 -5 1q-18 6 -12 15.5t15 21.5t-15 41q-27 29 -45 28q-20 0 -28 17z" />
<glyph unicode="Y" horiz-adv-x="784" d="M23 879q10 23 181 25h20q152 0 169 -23q12 -16 8 -23.5t-12 -25t-15 -36t1 -60.5t35 -97q18 -39 36.5 -111.5t51.5 -134.5q6 -25 5 -28t-12.5 -28.5t-17.5 -57.5q0 -10 -2 -19.5t-4 -18t-4 -13.5t-2 -11q-6 -20 -6 -27.5t8 -7.5q10 0 23.5 43t23.5 43q8 0 11 -25.5t0 -57 t-13 -46.5q-8 -27 0 -30t23.5 -11t15.5 -25.5t-21 -18.5h-7q-22 0 -67 4q-17 1 -36 1q-45 0 -109 -8q-44 -6 -73 -6q-42 0 -54 12t-9 20.5t26 24.5q27 18 33 41t6 125q0 70 -3.5 100.5t-7.5 40t-16 32t-25 55.5q-31 80 -83 195.5t-70 139.5q-11 17 -11 32q0 8 3 16zM514 881 q8 25 109 25h5q105 -1 126 -25q11 -12 11 -24q0 -24 -48 -42q-29 -10 -49.5 -48t-28.5 -44q-14 -8 -14 -35q0 -12 -10.5 -28.5t-23.5 -25.5q-7 -5 -12 -5t-8 4q-2 2 -2 8q0 16 11 61q10 45 6 60.5t-37 48.5q-37 38 -37 61q0 5 2 9z" />
<glyph unicode="Z" horiz-adv-x="651" d="M20 84q-2 27 30 102.5t72 158.5t47 106.5t34.5 83t50 107.5t22.5 52q0 8 52 86q35 53 51 66.5t49 13.5q49 0 59 14q3 8 13 12q6 2 11 2q3 0 5 -1q6 -2 6 -10q0 -10 56 -25q45 -12 52 -34q1 -3 1 -6q0 -18 -33 -32q-23 -10 -35 -29.5t-19 -52t-12 -41.5q-4 -10 -18 -57 t-28.5 -83t-22.5 -40q-12 -8 -12 -41t-27 -90l-96 -215q-20 -43 -29 -70q-3 -16 -27 -20q-12 -2 -40.5 -2t-73.5 2q-98 2 -115.5 8t-22.5 35zM39 758q-1 27 -1 48q0 64 5 73q6 11 27 11q27 0 80 -18l69 -22q14 -4 -3 -26.5t-52 -62.5t-51 -71q-23 -45 -46 -45h-4 q-14 4 -19 25.5t-5 87.5zM436 92q0 4 26.5 31t60.5 70t48 79q7 24 28 24q3 0 7 -1q16 -4 20.5 -26.5t4.5 -100.5v-123l-58 4q-45 4 -91 18.5t-46 24.5z" />
<glyph unicode="[" />
<glyph unicode="\" horiz-adv-x="555" d="M23 1012q8 20 71.5 20t79.5 -18q8 -10 17.5 -41t25.5 -83t35 -95q57 -143 82.5 -224.5t62.5 -238.5q14 -63 29.5 -106.5t22 -51.5t10.5 -21.5t-2 -17.5q-10 -25 18 -76q16 -29 17 -4q2 20 14 23q18 0 26 -27q0 -4 3 -8q2 -18 -9.5 -23.5t-54.5 -7.5q-29 -2 -41 -2 t-23.5 10.5t-14.5 19.5t-16.5 43t-27.5 62q-29 58 -29 74q0 12 -21.5 34.5t-21.5 39.5q0 14 -7 33.5t-23.5 59.5t-30.5 85q-23 63 -39 107l-57 145q-10 27 -42 120t-46 118q-16 33 -8 51z" />
<glyph unicode="]" />
<glyph unicode="a" horiz-adv-x="813" d="M24 56q-4 4 -3 10q0 21 45 65q37 37 53 71t29.5 89t25.5 92q4 8 7 16.5t5 16.5t4.5 14t3.5 13.5t2 11.5l3 12q6 29 11 34t19 -5q20 -18 11 -33q-20 -25 -39 -230q-4 -43 -3 -67q0 -16 1 -23q4 -18 32 -41q29 -23 29 -37q0 -17 -39 -24q-27 -4 -76 -4q-105 1 -121 19z M272 303q8 23 65.5 23t65.5 14q6 6 -3 57.5t-21 113.5t-14 87q0 33 -12.5 54.5t-12.5 99.5v92l49 10q27 4 36 11.5t5 17.5q-2 6 -1 10t6 6t15.5 2t26.5 -2q57 -4 55 -20q-2 -12 -40 -21q-31 -6 -31 -10t12 -8q25 -12 59 -2q31 6 46 -17q8 -16 -9.5 -27.5t-12.5 -39t26 -37.5 q20 -10 22 -26.5t-2 -40.5q-1 -5 -1 -11q0 -23 13 -57l27 -76q18 -47 44 -145.5t48.5 -170t40.5 -90.5q17 -16 17 -29q0 -7 -5 -14q-19 -22 -170 -22q-10 1 -20 1q-170 2 -178 25q-8 16 4 30.5t23.5 36.5t0.5 56q-10 33 -23 42.5t-58 13.5q-57 6 -80 21q-16 10 -16 27 q0 7 3 15zM272 603q0 40 12 40t12.5 -43t-11.5 -43q-13 0 -13 46z" />
<glyph unicode="b" horiz-adv-x="792" d="M22 853q-1 6 -1 11q0 19 12 31q5 6 69 6q39 0 99 -2l157 -4v-158q-2 -96 -5 -153.5t-11 -129t-12 -153.5q-4 -74 -4 -106v-17q2 -24 18 -24q23 0 23 -37q0 -33 -21 -37q-16 -2 -22 20q0 6 -2 13v32l-23 -32q-23 -33 -50.5 -33t-27.5 -14q0 -8 -43 -12q-20 -2 -41 -1 q-23 0 -47 2q-45 4 -49 13q-6 10 14 26q14 12 18.5 80t4.5 283q0 246 -4 297t-25 61q-23 12 -27 38zM410 61q2 16 36 43q27 20 36.5 45t15.5 99q5 52 5 81q0 15 -1 23q-4 26 -29 64l-37 57l45 43q29 29 36 48.5t6 44t7 46.5q8 25 -1 44.5t-15 24.5t10 19q12 8 11 16.5 t-13 31.5q-20 29 -20 56q0 23 14 44q18 16 23 -2q0 -14 33.5 -14.5t107.5 -59.5q49 -37 63.5 -58.5t20.5 -64.5q6 -41 1 -60.5t-30 -53.5q-39 -49 -69 -52l-54 -4q-23 -2 -22 -37q0 -25 11 -32t27.5 -4.5t45 -8t55.5 -37.5q29 -29 36 -50t7 -79v-16q0 -64 -14 -96 q-16 -36 -66 -74q-29 -20 -60.5 -29.5t-94.5 -15.5q-33 -3 -58 -3q-69 0 -69 21zM418 831q-2 2 -2 4.5t2 4.5q4 6 12 6q18 0 22 -6t-14 -17q-4 -2 -7 -2q-7 0 -13 10zM453 888.5q0 14.5 6 14.5q10 0 16 -18q1 -3 1 -5q0 -5 -7 -6q-16 0 -16 14.5z" />
<glyph unicode="c" horiz-adv-x="714" d="M26 504q8 96 45.5 173t92.5 105q41 20 41 34.5t31 14.5q20 0 29 10.5t11.5 20.5t15.5 8t42 -22q20 -16 23 -24.5t-9 -14.5q-20 -12 -43 -14q-14 1 -15 -11v-13q0 -18 1 -56q10 -158 12 -326q2 -158 7 -194.5t32 -67.5q36 -44 36 -69q0 -10 -6 -18q-11 -14 -38 -14 q-24 0 -62 11q-94 27 -156 103t-80 172q-12 67 -13 134q1 29 3 58zM516 92q31 25 84 109q50 77 71 77q14 0 15 -36v-15q-2 -59 -66 -123q-52 -51 -90 -50q-10 0 -18 3q-17 8 -17 13t21 22zM571 860q27 0 51 22q21 18 38 18q3 0 6 -1q14 -2 19 -30.5t7 -123.5q1 -33 1 -60 q0 -93 -11 -103q-8 -9 -17 -9q-20 0 -40 54q-10 25 -17 57q-16 82 -45 117q-25 31 -25 44q0 15 33 15z" />
<glyph unicode="d" horiz-adv-x="786" d="M20 859q0 9 10 21q12 14 46 19q16 2 48 2t79 -2l151 -4l4 -115q1 -19 1 -41q0 -88 -13 -218q-16 -163 -20 -240q-6 -186 -76 -197q-33 -4 -33 -18q0 -8 -43 -10l-40 -2q-24 0 -48 2q-45 3 -49 12q-6 10 14 26q14 12 18.5 79t4.5 280q0 248 -4 299t-27 73q-23 23 -23 34z M325 109q0 9 3 20q8 25 21 25t13 -29t-14 -35q-8 -6 -15 -1q-8 6 -8 20zM408 54q-3 5 -4 10q0 20 38 55q23 20 30 44.5t7 57.5t4 134.5t19 226.5q6 53 7 100v29q0 27 -1 43q-2 26 -4 44.5t0 27t8 10.5q19 8 37 8h7q22 -2 22 -13q0 -8 22.5 -22t59 -47t63.5 -80 q29 -51 36 -84t7 -123q0 -86 -7 -124t-32 -91q-35 -76 -105.5 -140.5t-129.5 -74.5q-26 -4 -44 -4q-31 0 -40 13z" />
<glyph unicode="e" horiz-adv-x="679" d="M20 868q4 16 46 25q17 5 60 5q33 0 80 -3q111 -6 128 -14q9 -6 9 -98q0 -132 -19 -443q-2 -33 2 -55.5t8 -29.5t3 -13t-13 -17q-24 -20 -24 -66q0 -7 1 -14q6 -35 23 -30q23 8 22 -11q0 -10 -31.5 -15t-70.5 -9t-49 -10q-14 -7 -46 -7q-21 0 -51 3q-56 5 -56 27 q0 12 17 28q18 18 23 338l6 319l-41 41q-27 29 -27 44q-1 3 0 5zM414 881q10 8 48 8t48 -10q12 -12 61 -27q33 -8 46.5 -22.5t25.5 -53.5q16 -50 16 -88v-9q-2 -42 -24 -42q-14 0 -28.5 18.5t-27 44t-43 56t-71.5 49.5q-62 27 -62 54q0 11 11 22zM418 109.5q0 15.5 14 15.5 t14 -15.5t-14 -15.5t-14 15.5zM463 449q-2 1 -2 8q-1 17 13 69q20 74 38 103q5 9 12 9q4 0 8 -3q14 -7 14 -157q0 -5 1 -10q0 -140 -15 -151q-18 -12 -37.5 12.5t-19.5 63.5q0 47 -12 56zM480 74q-2 7 -2 14q0 6 3 12q6 10 20.5 20.5t38 42.5t46.5 77q10 21 24 41 q12 15 21 15q17 0 22 -58q2 -25 2 -64v-115l-82 -4q-26 -2 -43 -2q-16 0 -26 2q-18 3 -24 19z" />
<glyph unicode="f" horiz-adv-x="686" d="M20 76q0 14 33 39l39 32v652l-37 24q-33 20 -29.5 39t40.5 27q17 4 74 4q28 0 66 -1q116 -3 138 -9q11 -8 11 -73q0 -18 -1 -42q-4 -104 -12 -206.5t-12 -125.5q-4 -31 4 -51t12 -24.5t-8 -26.5q-25 -29 -29 -115q0 -35 10 -33q18 10 18.5 39t14.5 29q8 0 10 -37 q2 -17 2 -38q0 -25 -2 -56l-4 -57l-159 -9q-46 -3 -80 -3q-98 0 -99 22zM381 78q-1 2 -1 5q0 13 19 23q25 14 25 -18q0 -8 -6.5 -15t-16.5 -7q-18 0 -20 12zM414 866q6 16 47 22q12 1 21 1q24 0 34 -10q12 -12 64 -27q33 -8 45 -22.5t24 -61.5q17 -55 17 -88q0 -31 -15 -43 q-5 -3 -10 -3q-20 0 -47 52q-25 45 -72 88t-71 43q-25 0 -35 15q-6 8 -6 17q0 8 4 17zM479 424q-3 30 -3 53q0 59 22 74q12 8 12 41t10 43q6 5 11 5q11 0 16 -30q5 -31 5 -95q0 -21 -1 -46q-2 -92 -7 -121t-20 -29q-33 0 -45 105z" />
<glyph unicode="g" horiz-adv-x="757" d="M22 424q-1 18 -1 35q0 152 77 246q70 82 104 107.5t79 31.5q14 2 22 -36q4 -19 4 -37.5t-4 -37.5q-4 -37 -4 -59q0 -12 1 -20q3 -23 10 -126.5t7 -218.5q2 -109 6.5 -149.5t16.5 -50.5q18 -14 21.5 -41t-13.5 -37q-5 -3 -13 -3q-27 0 -89 28q-82 38 -115 77 q-100 115 -109 291zM334 903q25 0 34 -6t9 -25q0 -10 -2 -16t-8.5 -6t-12.5 2t-18 7t-21 9q-25 8 -25 21q0 14 44 14zM397 454q10 17 168 17q160 0 170 -27q1 -3 1 -8q0 -16 -17 -43q-23 -35 -29 -147q-2 -82 -9 -101.5t-38 -35.5q-37 -23 -119 -30q-25 -2 -43 -2 q-40 0 -43 11q-4 14 10.5 14t38.5 35q14 20 15.5 28.5t-10.5 16.5q-17 10 -17 78v21q2 24 2 41q0 25 -4 36q-6 17 -39 43q-39 31 -39 47q0 4 2 6zM516 869q-1 2 -1 4t2 5q3 3 9 5q23 8 60 0q10 -2 20 -2q23 0 48 13q28 16 38 16q3 0 4 -1q12 -8 12 -147v-12 q-1 -150 -16 -158q-6 -4 -13 -4q-9 0 -17 9q-15 15 -26 48t-22.5 69t-30 71.5t-38.5 54.5q-12 10 -19.5 17t-9.5 12z" />
<glyph unicode="h" horiz-adv-x="868" d="M20 862.5q0 12.5 29 24.5q22 8 100 8q39 0 91 -2q158 -6 174 -19q14 -14 -17 -47q-23 -23 -27.5 -76t-9.5 -292q-2 -95 -2 -165q0 -173 11 -183q20 -20 -29 -33q-23 -5 -49 -5q-31 0 -64 7q-81 18 -103 40q-20 21 -20 81v12v31q0 89 -8 299q-6 184 -11 222t-32 58 q-33 27 -33 39.5zM29 66q-6 0 -6 4q0 5 10 18q23 27 26 10q2 -20 -18 -30q-6 -2 -12 -2zM90 65.5q0 14.5 36 14.5t36 -14.5t-37 -14.5q-35 0 -35 14.5zM457 489q-1 2 -1 4.5t1 6.5q10 14 49 14t49 9t-7.5 29.5t3.5 33.5q12 6 12 24.5t-6 39t-13 55t-7 67.5q0 43 -31 59 q-26 14 -26 24q0 18 75 28q26 4 63 6q57 3 99 3q131 0 131 -32q0 -13 -21 -33q-23 -25 -26.5 -73.5t-3.5 -282.5q0 -231 4 -282.5t26 -73.5q23 -25 23 -40q0 -5 -2 -9q-10 -12 -188 -12q-7 0 -13 -1q-166 0 -174 13q-8 14 23 34q25 16 37 85q11 64 11 113v8q-1 52 -1 65 q-6 12 2 22t9 24.5t-26 39.5q-37 35 -43 30q-20 -10 -28 2z" />
<glyph unicode="i" horiz-adv-x="436" d="M29 59q-7 5 -7 12q0 9 11 21q16 18 24 8q4 -6 -4 -26q-8 -23 -24 -15zM47 827q-25 21 -25 35t27 21q27 6 82 10q134 6 191 6h23q46 -2 61 -18q10 -9 10 -19q0 -14 -10 -22q-8 -6 -18.5 -24.5t-14.5 -43.5q-11 -39 -13 -341v-102q0 -204 9 -220q10 -25 -31 -31 q-15 -3 -34 -3q-33 0 -79 9q-76 16 -99.5 41t-23.5 92v30q0 86 -8 296q-6 188 -12 224t-35 60zM88 65.5q0 14.5 36 14.5t36 -14.5t-37 -14.5q-35 0 -35 14.5z" />
<glyph unicode="j" horiz-adv-x="688" d="M63 324q35 37 67 43q6 1 13 1q28 0 64 -20q57 -29 60 -80v-5q0 -48 -50 -79q-49 -29 -57 -73q-10 -43 -32 -41t-60 49q-48 58 -48 111q0 49 43 94zM268 845q-3 7 -3 14q0 11 9 20q10 10 197 10q119 0 155 -4t40 -21q2 -5 2 -11q0 -18 -25 -36q-20 -16 -25.5 -55 t-5.5 -213q-2 -188 -13 -279.5t-24.5 -111t-50.5 -41.5q-55 -37 -75 -37q-14 0 -25.5 -9.5t-17 -17.5t-12.5 -9h-1q-6 0 -14 15q-12 23 -41 15q-35 -12 -35 12q2 18 29 47q35 37 42 65.5t-9 57.5q-20 41 -25 412q0 98 -5 117.5t-32 29.5t-35 30z" />
<glyph unicode="k" horiz-adv-x="870" d="M25 872q8 8 58 13.5t143 9.5t116 4q7 1 14 1q36 0 52 -19q12 -16 8 -25.5t-29 -30.5q-27 -23 -33 -49t-12 -162q-4 -82 -6 -137q0 -14 6 -203q1 -33 1 -60q0 -109 -13 -128q-8 -14 -40 -14q-21 0 -52 6q-6 0 -23 4q-80 14 -98 33q-27 29 -33 188q-2 29 -4 162 q-6 231 -12.5 285.5t-26.5 76.5t-20 35q0 6 4 10zM74 65.5q0 14.5 35 14.5t45 -14q4 -8 -11 -11q-10 -4 -24 -4q-45 0 -45 14.5zM397 452q2 10 17.5 42t30 51.5t49.5 68.5q70 98 78 131q1 6 1 11q0 28 -32 61q-26 28 -26 46q0 25 50 30q16 1 40 1t57 -1q127 -4 145 -10 q39 -14 0 -43q-12 -8 -29 -17q-47 -20 -112 -86q-2 -2 -13.5 -13t-13.5 -13t-11.5 -13.5t-10.5 -16.5t-7 -18.5t-6 -23.5t-1 -26.5t3 -32t9.5 -37t13.5 -45.5q22 -60 22 -88q0 -18 20.5 -35t20.5 -47q2 -51 12.5 -105.5t20.5 -54.5q12 0 12 28.5t13 28.5q12 0 21 -22.5 t9 -50.5q0 -10 6.5 -18.5t14.5 -8.5q19 -1 37 -23q13 -16 12 -24q0 -4 -2 -6q-8 -8 -27.5 7t-36.5 -1q-16 -16 -166 -23q-36 -2 -64 -2q-102 0 -103 23q0 12 18 33q18 18 11 59t-42 129q-18 47 -26 65q-9 20 -13 50q-3 20 -3 31q0 5 1 9z" />
<glyph unicode="l" horiz-adv-x="669" d="M27 877q13 16 162 16h35q184 -2 202 -19q14 -16 -25 -47l-41 -32l-6 -260q-4 -211 -11 -297t-26 -132q-12 -27 -23 -31.5t-52 1.5q-59 10 -103 24q-27 12 -33 21q-12 27 -24 358q-2 92 -4 121q-4 129 -10.5 167t-26.5 60q-20 21 -20 36q0 8 6 14zM88 65.5 q0 14.5 28.5 14.5t29 -14.5t-28.5 -14.5t-29 14.5zM400 94q-5 5 -5 10t6 11q18 20 37 2q14 -16 -12 -27q-16 -6 -26 4zM488 88q4 18 32.5 57t28.5 62q0 27 16.5 62.5t18.5 45.5q7 24 21 24q11 0 28 -15q16 -16 16 -108v-21q-2 -111 -20 -127q-17 -13 -63 -13h-19 q-41 3 -51 9q-8 5 -8 16q-1 4 0 8z" />
<glyph unicode="m" horiz-adv-x="931" d="M25 866q7 20 111 22q12 0 23 1q87 0 132 -17q27 -10 36 -21t9 -36q0 -31 14.5 -45t20.5 -13t-9 -22q-12 -20 -8 -25t14.5 -21.5t10.5 -39.5q0 -33 14 -43q6 -2 10.5 2t4.5 15q0 23 14 20q12 -2 22 -29q8 -29 21 -28q15 0 25 -36q8 -26 7 -53q0 -10 -1 -20 q-2 -33 -9.5 -62.5t-15.5 -59t-33.5 -112.5t-52.5 -173q-4 -18 -21.5 -13.5t-29.5 25.5q-12 25 -54 147.5t-75 222t-37 111.5q-78 254 -113 254q-20 1 -29 15q-5 8 -5 16q0 9 4 18zM26 66q-2 3 -2 7q0 18 35 60q33 35 39 58.5t6 99.5q1 108 17 137q13 24 20 24q9 0 11 -32 q1 -10 1 -23q0 -26 -3 -61q-4 -36 -4 -64q0 -37 7 -60q13 -42 60 -87q25 -23 33 -36t-1 -22.5t-33 -12.5t-71 -3q-105 -1 -115 15zM492 78q0 10 22 24q45 25 53 48q14 35 15 284v6q2 389 45 424q16 14 41 -2q29 -18 69 -18q15 0 31 2q23 2 20 10q0 4 -2 6q-18 19 -18 29 t14 11h3q15 0 53 -7q37 -8 36.5 -28.5t-36.5 -20.5q-25 0 -27 -13.5t23 -21.5q23 -8 6 -39q-6 -10 -8 -34q-1 -12 -0.5 -29t0.5 -38q2 -42 5 -87t7 -120t6 -145q4 -129 10 -162.5t27 -47.5q22 -17 22 -29q0 -14 -28 -21q-43 -8 -176 -8q-213 0 -213 27z" />
<glyph unicode="n" horiz-adv-x="808" d="M20 66q-1 1 -1 3q0 13 38 58q43 51 45 61v134.5t23 140.5q25 25 29 12q2 -8 0 -59v-32q0 -186 65 -255q35 -37 35 -54q0 -4 -2 -7q-8 -14 -114 -16q-14 0 -26 -1q-82 0 -92 15zM47 879q27 10 154 10h157l37 -49q37 -47 37 -66q0 -14 60.5 -145t68.5 -144 q20 -37 32.5 -75.5t18.5 -57t21 -22.5q14 -4 12 12q0 8 -4 27q-8 41 -2 43q8 2 31 -41q12 -30 12 -76q0 -23 -3 -49q-5 -42 -5 -65q0 -20 4 -23q12 -12 2 -56q-8 -31 -21.5 -38t-62.5 -9l-74 -4l-59 105q-27 47 -83 143t-77 135q-39 72 -83 140.5t-66 115.5q-27 56 -78 107 q-42 42 -42 64q0 12 13 18zM526 872l35 13q23 8 74 8q21 0 47 -1q88 -5 104 -20q5 -5 5 -10q0 -6 -7 -13q-12 -13 -33.5 -29.5t-40 -55.5t-18.5 -90q0 -59 -22 -60q-21 0 -21 68q0 45 -10 66.5t-51 62.5zM649 516q0 12 6 12q10 0 17 -18q1 -2 1 -4q0 -6 -9 -6q-15 0 -15 16z " />
<glyph unicode="o" horiz-adv-x="786" d="M29 371q-7 48 -7 97q0 87 23 175q18 65 96 139q70 66 114 67q5 0 9 -1q26 -4 51 10q37 20 37 0q0 -14 -26 -41q-16 -16 -21.5 -27.5t-9.5 -24.5t-2 -46t4 -72t7 -123t7 -178q4 -188 29 -227q21 -31 21 -50q0 -22 -29 -28q-10 -2 -20 -2q-59 0 -136 61q-20 14 -37 31 q-51 51 -73.5 99.5t-36.5 140.5zM438 62q-1 4 -1 7q0 19 16 46q25 37 39 305t28 319q6 29 10.5 42.5t4.5 22.5t-3.5 11t-11.5 2q-14 0 -14 -22.5t-14.5 -22.5t-14.5 19q0 12 -31 51q-13 18 5 18q10 0 20 -5t16.5 -11t10.5 -8t6 2t2 20q0 25 4 27h1q5 0 19 -13 q10 -6 17.5 -11t22 -13t30.5 -17q39 -16 87 -76.5t63 -105.5q18 -64 18 -154q0 -45 -4 -95q-14 -154 -53 -193q-16 -16 -17 -33q0 -16 -53 -58t-96 -61q-37 -16 -66 -16h-6q-31 3 -35 23z" />
<glyph unicode="p" horiz-adv-x="765" d="M22 58q-2 4 -2 10q0 20 33 45l39 28v658l-39 28q-38 29 -28 52q4 14 35 18q22 3 74 3q27 0 61 -1l161 -4v-92q0 -72 -16 -284t-27 -261q-4 -23 -4 -37q0 -24 11 -24q16 0 16 35.5t14.5 35.5t14.5 -64.5t-15 -72.5q-25 -16 2 -29q14 -6 35 -2q31 8 43 -5t-6 -35.5 t-45 -8.5q-18 10 -90 10q-17 0 -39 -1q-105 -3 -168 -17q-14 -3 -25 -3q-27 0 -35 18zM412 392q-2 5 -2 10q0 18 28 38q20 18 31.5 52t27 138.5t15.5 137.5t-12 41q-21 16 -11 41q7 21 36 21q36 0 106 -33t92 -73t22 -128q0 -74 -6 -99.5t-37 -62.5q-37 -47 -99 -75.5 t-126 -28.5h-8q-46 0 -57 21zM422 881q8 22 17 22h1q6 0 8 -5v-5v-7q-2 -7 -4 -14.5t-4 -13.5t-2 -8q0 -4 -14 -4q-9 0 -9 10q0 9 7 25z" />
<glyph unicode="q" horiz-adv-x="768" d="M23 420q-2 35 -2 66q0 92 18 150q24 77 96 142q74 68 111.5 68t60.5 14q41 27 47 4q6 -18 -26 -45l-33 -31l6 -321q6 -215 12 -273.5t25 -78.5q30 -32 30 -51q0 -18 -26 -25q-12 -3 -25 -3q-54 0 -127 46q-27 18 -49 39q-59 59 -85.5 125.5t-32.5 173.5zM370 201 q7 18 52 24l47 6l-2 289q-2 289 -23.5 311.5t-19.5 46t25 29.5l25 9q3 0 24 -12q26 -13 59 -30.5t49 -27.5q76 -47 116 -172q26 -82 26 -160q0 -42 -7 -82q-6 -33 -8 -59.5t-1 -38.5t1 -21.5t-2 -12.5t-10 -7q-27 -8 -51 -68q-12 -29 0 -28q12 0 12 15t14.5 6t-14.5 -50 q-29 -42 -29 -61q0 -17 22 -17h5q4 0 8 2q37 6 37 -6q0 -35 -55 -56q-31 -13 -59 -13q-22 0 -42 8q-35 14 -67.5 17t-45 2t-19.5 8t-5 38v9q0 38 -33 61q-30 19 -30 35q0 3 1 6z" />
<glyph unicode="r" horiz-adv-x="854" d="M23 881q3 12 35 16q21 3 71 3q25 0 57 -1l156 -4v-100q0 -111 -10 -248t-19 -146q-6 -6 9.5 -27.5t-0.5 -37.5t-17 -70q0 -33 5 -42t20 -3q8 0 12 1t6 -6t1 -18.5t-3 -33.5q-4 -31 -4 -47.5t4 -23.5t11.5 -6t21.5 9q18 10 23.5 6t5.5 -28q0 -25 -5.5 -30t-19.5 3 q-21 9 -123 9h-22q-122 -1 -166 -11q-38 -11 -48 13q-2 6 -3 12q0 20 24 45q20 23 25.5 73t5.5 282t-5 282.5t-28 72.5q-23 25 -23 44q0 6 3 12zM436 817q0 14 13 14q14 0 30.5 -22.5t8 -30.5t-30 8.5t-21.5 30.5zM441 452q3 18 30 56q32 45 32 83q0 9 -2 18q-9 46 5 54.5 t15 80.5v9q0 63 -13 70q-14 8 -14 45q0 33 10 33q150 -68 192.5 -112t42.5 -127q0 -70 -32.5 -109t-90.5 -39q-39 0 -54 -19.5t-3 -54.5q4 -16 13.5 -17t37.5 9q29 10 42.5 6t43.5 -32q33 -32 38 -50q3 -10 3 -32q0 -18 -2 -43t-2 -43q1 -32 7 -44q10 -20 55 -20 q37 0 37 -20q0 -21 -41 -64q-33 -37 -53.5 -45t-86.5 -8q-59 0 -82.5 7t-50.5 32q-27 29 -33 52.5t-6 104.5q0 80 -11 129q-10 50 -20 61q-7 8 -8 20q0 5 1 9z" />
<glyph unicode="s" horiz-adv-x="659" d="M20 180q-1 25 -1 45q0 93 15 111q18 20 32 16q12 -4 33.5 -58t29.5 -101q4 -23 19.5 -43.5t31 -32t24 -22.5t-1 -17t-42.5 -13.5t-99 -15.5q-27 -4 -31.5 13.5t-9.5 117.5zM59 692q46 114 105 137q41 16 49 9t8 -62q0 -57 19.5 -92t44 -44t56.5 -19.5t44 -22.5 q14 -12 55 -12q33 0 94.5 -43t61.5 -68q0 -16 21.5 -33.5t21.5 -117.5q0 -94 -26.5 -143.5t-98.5 -98.5q-41 -27 -83 -39q-28 -8 -49 -8q-12 0 -20 2q-26 6 -26 29q0 16 20.5 33.5t41 30.5t30.5 42q3 10 3 20q0 21 -13 46q-12 29 -48 51t-120 59q-134 56 -184 148 q-27 49 -27 103q0 45 20 93zM207 885q0 20 31 27q6 1 11 0q18 0 17 -17q-2 -8 -16 -14.5t-28.5 -5t-14.5 9.5zM454 863q6 11 46 11q31 0 51 12q21 11 29 19q6 5 11 5q3 0 5 -1q14 -8 14 -143t-14 -143q-8 -5 -15 -5q-17 0 -31 28q-18 40 -35 101.5t-36 77.5q-26 23 -26 34 q0 2 1 4z" />
<glyph unicode="t" horiz-adv-x="737" d="M23 721q-3 49 -3 81q0 42 5 54q14 20 57 12t55 -20q8 -8 -2 -45t-27.5 -86t-19.5 -74q-4 -37 -33 -37q-20 0 -25 19.5t-7 95.5zM168 59q-2 6 -2 11q0 21 31 43l39 28v371q0 373 6 379q10 10 95 10h31q114 -2 119 -14q9 -14 9 -139v-40q-2 -163 -15 -241q-4 -29 -4 -50 q0 -11 1 -19q3 -26 8.5 -31t6.5 -14t-10 -15q-10 -14 -18 -50t-8 -61.5t8 -29.5q14 0 14 14q1 14 17 14q13 0 13 -40q0 -10 -1 -21q-4 -43 1 -51.5t26 -6.5q20 2 26 -4t6 -29.5t-5 -28.5t-19 3q-25 10 -107 10t-168 -12q-49 -6 -69 -6h-9q-16 2 -22 20zM570 845q-2 12 -3 21 q0 17 8 27q9 8 57 9h10q40 0 58 -7q17 -10 17 -45q0 -12 -2 -28q-8 -58 -21 -70q-12 -12 -12 -37q0 -33 -16 -35h-1q-14 0 -26 29q-14 39 -43 73q-20 29 -26 63z" />
<glyph unicode="u" horiz-adv-x="815" d="M23 879q8 23 178 26q24 1 46 1q168 0 171 -42q0 -14 -25 -33q-23 -18 -29 -48.5t-10 -161.5q-2 -109 -10 -190t-13 -108.5t-4 -49t13 -46.5q14 -33 -6.5 -46t8.5 -50q20 -33 12 -48t-55 -26q-8 -1 -16 -1q-17 0 -33 6q-22 10 -68 47q-20 16 -30.5 23t-22.5 24.5t-16 23.5 t-11.5 33t-7.5 40t-2 58t-2 75v101v41v271l-39 28q-29 24 -29 43q0 5 1 9zM379 96q0 8 10 12t22.5 0t16.5 -14q12 -18 0 -30q-5 -5 -11 -4q-8 0 -18 8q-20 16 -20 28zM545 854q-2 4 -2 9q0 9 8 18q17 22 116 22h9q96 1 114 -19q4 -5 4 -13q0 -21 -38 -60l-45 -47l-4 -238 q-6 -236 -31 -290q-8 -22 -20 -36q-11 -12 -17 -12h-2q-14 8 8 43q14 20 15.5 37t-4 38.5t-12.5 96t-7 179.5v190l-51 43q-35 27 -41 39z" />
<glyph unicode="v" horiz-adv-x="770" d="M23 881q8 25 172 25h7q171 0 191 -25q10 -12 9 -22.5t-18 -29t-19.5 -35t5 -29.5t14.5 -42t7 -61q0 -45 15 -54q12 -8 35.5 -168.5t40 -181t-7 -36t-23.5 -29.5q0 -25 -42 -69t-67 -44q-29 0 -47.5 17.5t-18.5 43.5q0 23 -13 51.5t-39.5 89t-51.5 140.5 q-68 244 -91.5 314.5t-47.5 99.5q-12 17 -12 32q0 7 2 13zM391 51q0 14 23 15q14 0 14 7t-2 18.5t12 27.5q12 16 16.5 16t6.5 -16q1 -5 1 -10q0 -28 -36 -58q-18 -16 -26.5 -16t-8.5 16zM508 473q-2 7 -2 15q0 10 3 20q5 20 15 24q18 6 21 9v-9q0 -8 -1 -21t-3 -25.5 t-7.5 -20.5t-11.5 -8q-10 0 -14 16zM512 878q6 10 13 14.5t28.5 6.5t35 3t36.5 1h6q103 -1 117 -21q3 -4 2 -8q0 -22 -52 -65q-33 -27 -48 -53.5t-27 -69.5q-23 -92 -35 -116q-10 -20 -24 -20q-3 0 -7 1q-12 4 -14 9t3 14.5t12 22.5t14.5 42t7.5 63q0 47 -7 69.5t-32 47.5 q-19 21 -27 35q-5 8 -4 15q0 5 2 9z" />
<glyph unicode="w" horiz-adv-x="1044" d="M23 881q4 14 39.5 18t150.5 4h182l-12 -41q-8 -33 -8 -82q0 -20 1 -43q5 -78 23 -114q20 -41 21 -88q0 -37 11 -90.5t15.5 -77t-10.5 -58.5q-6 -10 -8 -23.5t-1 -23.5t2 -19.5t0 -13.5t-7 -4q-10 0 -21.5 -22.5t-29 -55t-33.5 -49.5q-29 -27 -37 -47q-4 -12 -7 -12t-7 12 q-14 49 -69.5 209t-94.5 303q-39 150 -55.5 200t-32.5 71q-14 17 -14 34q0 6 2 13zM348 51.5q0 14.5 14.5 13.5t14.5 27q0 41 24 47q16 -6 19 -28q0 -20 -20.5 -47t-37.5 -27q-14 0 -14 14.5zM496 494q-11 71 -11 117q0 60 19 79q18 16 18 51q0 31 24.5 67t43.5 36h2 q20 0 60 -43q42 -45 42 -68q0 -20 15.5 -64t40 -114t38.5 -127q8 -31 18.5 -61.5t11.5 -32.5t-1 -20.5t-7 -30t-19.5 -56.5t-28.5 -102l-21 -80h-63q-47 0 -57.5 9t-28.5 63q-70 213 -96 377zM565 889q0 12 12.5 13t57.5 -7q45 -10 45 -29q0 -16 -11.5 -20t-23.5 10 q-10 10 -30.5 13t-35 5.5t-14.5 14.5zM786 881q8 22 86 22q16 -1 35 -1q111 -6 117 -32q4 -25 -33 -41q-39 -18 -61.5 -74.5t-34.5 -102.5t-29 -46q-12 0 -15 20q-1 8 -1 23q0 20 2 53q1 19 1 35q0 37 -4 51q-5 18 -32 39q-33 23 -33 44q0 5 2 10z" />
<glyph unicode="x" horiz-adv-x="770" d="M20 70q-4 25 32 39t83 73q46 56 61 56q7 0 7 -13q0 -10 -2 -22q-8 -31 5 -61.5t36 -30.5t30 -17.5t-10 -36.5q-15 -17 -93 -17q-16 0 -34 1q-68 2 -89 7t-26 22zM35 836q-9 10 -9 17q0 17 46 19q11 1 25 1q29 0 72 -3q39 -2 63 -2h24q23 2 27 17q6 12 15 13t16.5 -8 t7.5 -24q0 -14 9 -18t24.5 1t29.5 19q35 35 33 4q0 -16 -17 -51q-22 -49 -22 -68q0 -13 10 -13q3 0 6 1q6 2 8.5 -1t2.5 -10t-3 -15q-8 -31 5.5 -58.5t35.5 -27.5q8 0 14.5 -8.5t6.5 -18.5q0 -20 23.5 -64t74.5 -130t90 -168q18 -37 36 -67t29 -44t19 -25q9 -12 11 -18 q2 -4 1 -8q0 -7 -10 -17q-20 -27 -191 -27h-6q-177 0 -188 27q-8 20 17 48q16 18 8 44.5t-60 131.5q-35 68 -57 113.5t-30.5 59t-13.5 25t-13 27.5l-29 65q-10 23 -28.5 53.5t-36.5 71.5q-41 92 -76 136zM483 881q6 12 30 17t89 5q106 -1 116 -21q1 -3 2 -5q0 -23 -63 -80 q-72 -67 -93 -67q-9 0 -9 11q0 7 4 17q1 4 1 8q0 23 -38 56q-40 34 -40 54q0 3 1 5z" />
<glyph unicode="y" horiz-adv-x="784" d="M23 881q4 14 39.5 18t148.5 4t149.5 -4t40.5 -18q8 -23 -14 -47q-14 -16 -15 -32t7 -50q10 -35 26.5 -71t30.5 -103q14 -68 28.5 -96.5t14.5 -47.5q0 -25 15.5 -45t3 -36.5t-25.5 -78t-17 -71.5q-8 -20 8 -20.5t24 42.5q10 49 23 45q11 -4 11 -39q0 -18 -3 -43 q-2 -22 -2 -39q0 -43 14 -55q21 -16 21 -24.5t-187 -9.5h-37q-150 0 -157 8q-8 8 27 43q25 23 30.5 47t5.5 110q0 90 -12 136.5t-76 195.5q-86 207 -108 232q-16 19 -16 37q0 6 2 12zM512 881q8 22 91 22q17 0 37 -1q118 -5 124 -32q4 -25 -37 -45q-31 -16 -88 -106t-70 -90 q-12 0 -16 8t1 23.5t19 31.5q19 33 19 56q0 14 -8 25q-19 28 -48 59q-25 26 -25 43q0 3 1 6z" />
<glyph unicode="z" horiz-adv-x="655" d="M22 80q-2 3 -2 10q0 6 2 18q4 22 13.5 44t32.5 67q51 109 51 116t37 89l73 162q97 209 138 256q19 20 39 24q8 2 22 2q21 0 57 -4q119 -10 119 -24q0 -4 -2 -9q-10 -16 8 -38q12 -14 7 -18.5t-37 -6.5q-20 -2 -21 -45q0 -27 -9 -47.5t-30.5 -65.5t-40.5 -110 q-18 -61 -43.5 -126t-54.5 -128.5t-35 -77.5q-14 -37 -18 -48t-18.5 -28.5t-18.5 -19.5q-3 -2 -29 -8q-22 -6 -37 -6h-5q-16 1 -62 1h-68.5t-42.5 7.5t-25 13.5zM35 758q-2 43 -2 71q0 43 4 54q7 18 35 18q32 0 90 -22q66 -25 69 -27l-5 -8q-5 -8 -15 -20.5t-23 -26.5 q-31 -33 -54 -73t-35.5 -56.5t-30.5 -16.5t-24.5 17.5t-8.5 89.5zM436 89q0 7 24 35q28 32 59.5 66.5t31.5 42.5q1 16 25 47q22 27 35 27h3q14 -3 20 -117q1 -30 1 -53q0 -65 -10 -76q-4 -4 -23 -4q-23 1 -69 7q-97 14 -97 25z" />
<glyph unicode="{" />
<glyph unicode="|" />
<glyph unicode="}" />
<glyph unicode="~" horiz-adv-x="423" d="M23.5 857.5q-9.5 14.5 14 51.5t60.5 64q33 31 77 27.5t75 -17.5t68.5 -31.5t60.5 -19.5q33 0 22 -33q-8 -33 -43 -45q-39 -12 -133 18l-96 33l-49 -31q-47 -31 -56.5 -16.5z" />
<glyph unicode="&#xa2;" />
<glyph unicode="&#xa3;" horiz-adv-x="335" d="M23 475q-6 42 2 62q14 37 139 14q129 -25 149 -72q6 -16 -6 -33q-18 -20 -149 -16l-131 4z" />
<glyph unicode="&#xa7;" />
<glyph unicode="&#xab;" horiz-adv-x="1202" d="M31 530q-23 18 13 44t50 26q12 0 35 21.5t38 21.5t69.5 36t93.5 48q94 27 86 12q-4 -10 -47 -30q-45 -23 -78 -52.5t-33 -50.5q0 -10 13.5 -20.5t66.5 -43t111 -75.5l98 -72v-108q0 -37 -1 -55.5t-3 -32t-7.5 -13.5t-11.5 2q-25 8 -231.5 151.5t-261.5 190.5zM650 550.5 q-1 6.5 22 16.5q38 18 69 41q43 31 136.5 76t105.5 45q39 0 -39 -61q-88 -70 -24 -93q25 -10 143 -90l119 -77v-113q0 -113 -8 -113q-12 0 -218 141.5t-280 200.5q-25 20 -26 26.5zM1007.5 729q0.5 14 23 14t22.5 -14t-23 -14t-22.5 14z" />
<glyph unicode="&#xad;" horiz-adv-x="356" d="M23 475q-6 41 2 64q8 20 58 16t96 -15.5t63 -17.5q49 -20 63 -4q16 16 27 4q8 -10 -4 -20t-29 -39q-10 -18 -34.5 -23.5t-110.5 -5.5h-127z" />
<glyph unicode="&#xbb;" horiz-adv-x="1214" d="M20 758q0 98 8.5 106t30 -3t140.5 -91q211 -141 233 -168q10 -12 62.5 -43t56.5 -43t-68.5 -60t-144.5 -79q-37 -16 -81 -39t-63.5 -31t-23.5 -4q-12 10 1 30.5t32 20.5q27 0 82 45q43 37 41 58.5t-50 36.5q-23 6 -100.5 58t-83.5 56q-49 27 -60.5 51.5t-11.5 98.5z M49 268q0 14 14.5 14.5t14.5 -6.5q0 -10 -17 -16q-12 -4 -12 8zM92 297q0 14 14.5 14t14.5 -6q0 -10 -17 -16q-12 -4 -12 8zM655 662v96q1 98 11 108t24.5 3t85.5 -56l154 -102q51 -35 118.5 -87.5t106.5 -72.5q66 -33 8 -74q-12 -10 -186 -96q-45 -23 -82 -41 q-33 -20 -33 -8q2 14 51 59q59 53 60 66q0 8 -15.5 15t-71 37t-122.5 77zM690 272q11 11 27 19q39 18 37 8q-2 -14 -41 -39q-12 -6 -17 -6q-23 0 -6 18z" />
<glyph unicode="&#xbf;" />
<glyph unicode="&#xc0;" />
<glyph unicode="&#xc1;" />
<glyph unicode="&#xc2;" />
<glyph unicode="&#xc4;" />
<glyph unicode="&#xc7;" />
<glyph unicode="&#xc8;" />
<glyph unicode="&#xc9;" />
<glyph unicode="&#xca;" />
<glyph unicode="&#xcb;" />
<glyph unicode="&#xce;" />
<glyph unicode="&#xcf;" />
<glyph unicode="&#xd1;" />
<glyph unicode="&#xd3;" />
<glyph unicode="&#xd4;" />
<glyph unicode="&#xd6;" />
<glyph unicode="&#xd9;" />
<glyph unicode="&#xda;" />
<glyph unicode="&#xdb;" />
<glyph unicode="&#xdc;" />
<glyph unicode="&#xdf;" />
<glyph unicode="&#xe0;" />
<glyph unicode="&#xe1;" />
<glyph unicode="&#xe2;" />
<glyph unicode="&#xe4;" />
<glyph unicode="&#xe7;" />
<glyph unicode="&#xe8;" />
<glyph unicode="&#xe9;" />
<glyph unicode="&#xea;" />
<glyph unicode="&#xeb;" />
<glyph unicode="&#xee;" />
<glyph unicode="&#xef;" />
<glyph unicode="&#xf3;" />
<glyph unicode="&#xf4;" />
<glyph unicode="&#xf6;" />
<glyph unicode="&#xf9;" />
<glyph unicode="&#xfa;" />
<glyph unicode="&#xfb;" />
<glyph unicode="&#xfc;" />
<glyph unicode="&#x2000;" horiz-adv-x="682" />
<glyph unicode="&#x2001;" horiz-adv-x="1365" />
<glyph unicode="&#x2002;" horiz-adv-x="682" />
<glyph unicode="&#x2003;" horiz-adv-x="1365" />
<glyph unicode="&#x2004;" horiz-adv-x="455" />
<glyph unicode="&#x2005;" horiz-adv-x="341" />
<glyph unicode="&#x2006;" horiz-adv-x="227" />
<glyph unicode="&#x2007;" horiz-adv-x="227" />
<glyph unicode="&#x2008;" horiz-adv-x="170" />
<glyph unicode="&#x2009;" horiz-adv-x="273" />
<glyph unicode="&#x200a;" horiz-adv-x="75" />
<glyph unicode="&#x2010;" horiz-adv-x="356" d="M23 475q-6 41 2 64q8 20 58 16t96 -15.5t63 -17.5q49 -20 63 -4q16 16 27 4q8 -10 -4 -20t-29 -39q-10 -18 -34.5 -23.5t-110.5 -5.5h-127z" />
<glyph unicode="&#x2011;" horiz-adv-x="356" d="M23 475q-6 41 2 64q8 20 58 16t96 -15.5t63 -17.5q49 -20 63 -4q16 16 27 4q8 -10 -4 -20t-29 -39q-10 -18 -34.5 -23.5t-110.5 -5.5h-127z" />
<glyph unicode="&#x2012;" horiz-adv-x="356" d="M23 475q-6 41 2 64q8 20 58 16t96 -15.5t63 -17.5q49 -20 63 -4q16 16 27 4q8 -10 -4 -20t-29 -39q-10 -18 -34.5 -23.5t-110.5 -5.5h-127z" />
<glyph unicode="&#x2013;" horiz-adv-x="1064" d="M28 475q-19 41 7 64q26 20 188.5 16t312.5 -15.5t205 -17.5q159 -20 205 -4q52 16 88 4q26 -10 -13 -20t-95 -39q-32 -18 -112 -23.5t-359 -5.5h-414z" />
<glyph unicode="&#x2014;" horiz-adv-x="2087" d="M37 475q-39 41 13 64q52 20 377 16t624.5 -15.5t410.5 -17.5q318 -20 410 -4q104 16 175 4q52 -10 -26 -20t-189 -39q-65 -18 -224 -23.5t-719 -5.5h-826z" />
<glyph unicode="&#x201c;" horiz-adv-x="595" d="M20 664q0 20 10.5 30.5t23 12.5t18.5 9t2 23q-8 18 20.5 70.5t69.5 89.5q18 16 43.5 24.5t45 4.5t19.5 -21q0 -16 -61 -61q-51 -37 -50 -55.5t56 -40.5q33 -14 41 -26.5t8 -55.5q0 -84 -51 -111t-111 25q-27 23 -26.5 49t-14 26t-14.5 -14t-14.5 -14t-14.5 35zM324 657 q0 16 20 25q25 8 20.5 39t23.5 82t69 88q31 31 68.5 39t49.5 -10q4 -10 -26.5 -40t-75.5 -59q-20 -12 -19 -18t23 -25q12 -10 31.5 -24.5t27 -20.5t15.5 -22.5t12 -40.5q4 -33 -1 -50.5t-25 -39.5q-35 -35 -74 -27q-27 4 -66 39t-35 49q0 4 -4 5t-14 1q-18 -4 -20 10z" />
<glyph unicode="&#x201e;" horiz-adv-x="595" d="M20 672q0 27 6.5 35t24.5 8t20.5 4t-5 12t-8.5 18.5t14 22.5q20 19 20 37q0 14 39 53t79 59.5t64 -8.5q6 -12 -11 -30.5t-70 -55.5l-35 -24l59 -55q51 -47 60.5 -83t-19.5 -75q-23 -33 -62.5 -39t-71.5 14.5t-32 57.5q0 33 -14.5 42t-14.5 -13.5t-21.5 -22.5t-21.5 43z M332 657q-6 16 16 37q27 26 29 49q4 66 61.5 128.5t100.5 58.5q68 -8 8 -58q-8 -8 -27 -22q-53 -41 -53 -53q0 -8 15.5 -21.5t35.5 -23.5q37 -16 44 -29.5t7 -65.5q0 -45 -7 -62t-27 -32q-43 -23 -77 -11.5t-55.5 38t-13.5 41.5q12 18 -1 29.5t-30 -3.5q-23 -18 -26 0z" />
<glyph unicode="&#x2022;" />
<glyph unicode="&#x202f;" horiz-adv-x="273" />
<glyph unicode="&#x205f;" horiz-adv-x="341" />
<glyph unicode="&#x20ac;" horiz-adv-x="659" d="M20 580q0 10 2.5 14t7.5 4t14 -5t28 -15q20 -14 27 -32t7 -57q0 -63 -18 -63q-12 0 -13 14.5t2 33t-2 37.5t-24 30q-31 19 -31 39zM43 358l47 39q86 74 16 197l-30 51l35 31q29 29 49 66.5t16 60.5q-2 12 10.5 16t34 8.5t33.5 14.5q31 25 108.5 30t169.5 -32 q55 -27 85 -64t18 -67q-8 -25 -26.5 -20t-51.5 42q-35 41 -96.5 70.5t-89.5 19.5q-104 -33 -162 -100q-49 -55 -40 -77.5t83 -29.5q49 -4 63.5 -11t14.5 -25.5t-14.5 -24.5t-63.5 -10l-80 -8v-101l76 -4q86 -6 90 -41q2 -33 -66 -47q-16 -4 -34 -4q-68 -4 -69 -29.5 t60 -95.5q49 -53 68.5 -63.5t69.5 -10.5q53 0 95 16.5t61.5 38t40 41t28.5 24.5t29 -9q23 -23 8 -51q-20 -35 -73.5 -77t-70.5 -36q-14 6 -39.5 -5t-85.5 -3q-45 4 -70.5 17.5t-64.5 51.5q-61 63 -73.5 63.5t-22.5 57.5q-6 35 -16.5 50.5t-32.5 23.5z" />
<glyph unicode="&#x25fc;" horiz-adv-x="901" d="M0 0v901h901v-901h-901z" />
</font>
</defs>
</svg>
